<?xml version="1.0" encoding="UTF-8" standalone="no"?>
<svg
   xmlns:dc="http://purl.org/dc/elements/1.1/"
   xmlns:cc="http://creativecommons.org/ns#"
   xmlns:rdf="http://www.w3.org/1999/02/22-rdf-syntax-ns#"
   xmlns:svg="http://www.w3.org/2000/svg"
   xmlns="http://www.w3.org/2000/svg"
   xmlns:sodipodi="http://sodipodi.sourceforge.net/DTD/sodipodi-0.dtd"
   xmlns:inkscape="http://www.inkscape.org/namespaces/inkscape"
   width="4.1666698in"
   height="4.1666698in"
   viewBox="0 0 300.00044 299.99946"
   id="svg2"
   version="1.1"
   inkscape:version="0.91 r13725"
   sodipodi:docname="coffeescript.svg">
  <metadata
     id="metadata9">
    <rdf:RDF>
      <cc:Work
         rdf:about="">
        <dc:format>image/svg+xml</dc:format>
        <dc:type
           rdf:resource="http://purl.org/dc/dcmitype/StillImage" />
        <dc:title></dc:title>
      </cc:Work>
    </rdf:RDF>
  </metadata>
  <defs
     id="defs7" />
  <sodipodi:namedview
     pagecolor="#ffffff"
     bordercolor="#666666"
     borderopacity="1"
     objecttolerance="10"
     gridtolerance="10"
     guidetolerance="10"
     inkscape:pageopacity="0"
     inkscape:pageshadow="2"
     inkscape:window-width="691"
     inkscape:window-height="480"
     id="namedview5"
     showgrid="false"
     inkscape:zoom="0.5075256"
     inkscape:cx="217.42517"
     inkscape:cy="114.53015"
     inkscape:window-x="236"
     inkscape:window-y="73"
     inkscape:window-maximized="0"
     inkscape:current-layer="svg2" />
  <path
     id="Selection"
     d="m 185.31995,48.375842 c 10.29293,0.907549 30.8124,6.153624 30.98948,19.19134 0.11064,8.41143 -8.27862,13.25907 -15.49473,14.742138 -13.41402,2.744782 -30.59105,2.855459 -37.63008,-10.315069 13.90098,-4.360662 12.66141,2.390617 24.34886,2.700511 4.49348,0.110678 19.56765,-3.187488 12.04163,-10.137986 -4.16144,-3.807279 -13.34761,-3.829413 -18.68223,-3.430978 -26.20823,1.970046 -37.25377,20.917897 -66.40602,19.634049 -7.12758,-0.309896 -15.981709,-1.881505 -20.984305,-7.481746 -14.72,-16.490829 20.121025,-26.850169 29.838445,-12.351521 0,0 -26.562414,2.213535 -26.562414,2.213535 0,0 0,4.427067 0,4.427067 32.981664,12.063761 47.923024,-22.777266 88.541364,-19.19134 z M 56.226643,80.383546 c 7.016903,10.071581 31.078019,14.3437 42.765476,16.269481 40.972521,5.356743 71.762781,6.153623 112.890241,0 12.41793,-1.483069 44.97901,-5.71092 50.68993,-18.261663 1.28386,-3.453113 0.48698,-5.268211 0,-8.610647 0,0 6.52994,3.740872 6.52994,3.740872 8.67704,7.08331 6.72913,14.432243 -2.01432,20.121031 -8.41143,5.467424 -29.44001,10.53642 -39.7108,11.97522 -41.61445,7.99085 -102.44237,7.96872 -143.879727,0 C 72.651067,102.98373 55.075605,99.176453 46.110792,93.06709 39.027481,88.263728 35.552232,82.552809 42.170701,75.358823 c 2.27994,-2.501294 7.437475,-5.799459 10.337204,-7.791641 1.106768,4.205716 1.173173,9.164033 3.718738,12.816364 z m 0.708331,34.841024 c 27.60277,11.82028 82.365606,14.67574 112.890246,14.32157 0,0 22.13534,-2.01431 22.13534,-2.01431 33.49077,-2.45703 54.78497,-4.47135 84.1143,-22.33456 -2.98828,21.22779 -13.23694,52.68211 -24.48169,70.83308 0,0 -21.53769,30.98948 -21.53769,30.98948 -9.91663,15.14058 -7.17185,21.82545 -16.26948,30.12621 -6.02081,5.48956 -16.2252,9.47392 -24.03897,11.57678 -20.58588,5.57811 -66.09614,4.31639 -84.07003,-8.16795 -11.842411,-8.23434 -12.528607,-19.70045 -19.434833,-31.32151 0,0 -21.117117,-30.98947 -21.117117,-30.98947 0,0 -14.830678,-26.56241 -14.830678,-26.56241 -3.165355,6.81768 -7.791641,14.60933 -8.234348,22.13534 -1.28385,21.49342 17.265566,38.31628 37.010292,42.05716 0,0 0,4.42706 0,4.42706 -15.782499,2.08072 -25.787673,4.69269 -39.755077,-5.84372 -25.433507,-19.16921 -17.132754,-57.39695 8.765598,-71.62998 0,0 2.213535,6.6406 2.213535,6.6406 23.397056,-9.85022 20.762949,-5.68878 44.270681,-6.6406 -22.932213,-9.651 -23.242107,-7.43747 -46.484216,-2.21353 0,0 -8.854139,-35.41654 -8.854139,-35.41654 5.799461,3.54165 11.443974,7.34893 17.708276,10.0273 z"
     style="opacity:0.03999999;fill:#000000;fill-opacity:1;stroke:none;stroke-width:1"
     inkscape:connector-curvature="0" />
</svg>
