<?xml version="1.0" encoding="UTF-8" standalone="no"?>
<svg
   xmlns:dc="http://purl.org/dc/elements/1.1/"
   xmlns:cc="http://creativecommons.org/ns#"
   xmlns:rdf="http://www.w3.org/1999/02/22-rdf-syntax-ns#"
   xmlns:svg="http://www.w3.org/2000/svg"
   xmlns="http://www.w3.org/2000/svg"
   xmlns:sodipodi="http://sodipodi.sourceforge.net/DTD/sodipodi-0.dtd"
   xmlns:inkscape="http://www.inkscape.org/namespaces/inkscape"
   width="4.1666698in"
   height="4.1666698in"
   viewBox="0 0 300.00019 300.00075"
   id="svg2"
   version="1.1"
   inkscape:version="0.91 r13725"
   sodipodi:docname="less.svg">
  <metadata
     id="metadata9">
    <rdf:RDF>
      <cc:Work
         rdf:about="">
        <dc:format>image/svg+xml</dc:format>
        <dc:type
           rdf:resource="http://purl.org/dc/dcmitype/StillImage" />
        <dc:title />
      </cc:Work>
    </rdf:RDF>
  </metadata>
  <defs
     id="defs7" />
  <sodipodi:namedview
     pagecolor="#ffffff"
     bordercolor="#666666"
     borderopacity="1"
     objecttolerance="10"
     gridtolerance="10"
     guidetolerance="10"
     inkscape:pageopacity="0"
     inkscape:pageshadow="2"
     inkscape:window-width="970"
     inkscape:window-height="535"
     id="namedview5"
     showgrid="false"
     units="in"
     inkscape:zoom="0.61083734"
     inkscape:cx="-102.10844"
     inkscape:cy="121.24979"
     inkscape:window-x="4"
     inkscape:window-y="66"
     inkscape:window-maximized="0"
     inkscape:current-layer="svg2" />
  <path
     id="Selection"
     d="m 23.037074,130.21793 c 0.116347,-10.04068 -1.300431,-27.74706 3.668581,-36.275138 3.230541,-5.543941 8.788168,-7.782055 14.811211,-8.842931 7.604093,-1.334651 23.058674,-0.739191 31.48409,-0.739191 0,0 0,68.44367 0,68.44367 0,6.22838 -1.423627,18.05543 3.497472,22.31947 2.224419,1.93012 4.722613,2.27234 7.453516,3.00469 0,0 -1.649492,9.58211 -1.649492,9.58211 -0.212175,1.19092 -0.417507,3.30582 -1.492072,4.03133 -1.163544,0.78026 -6.953877,-0.0684 -8.493861,-0.34907 -12.504659,-2.25864 -16.405948,-9.43153 -16.426481,-21.47761 0,0 0,-71.865853 0,-71.865853 -3.928667,0.01373 -9.760068,0.164258 -12.915322,2.696683 -3.46325,2.78565 -3.504316,6.94019 -3.51116,10.99205 0,0 0,17.79535 0,17.79535 -0.0069,5.4276 -0.636527,11.1837 -3.853379,15.74205 0,0 -4.359861,5.4755 -4.359861,5.4755 10.834632,6.11201 8.199551,26.782 8.21324,37.644 0.0069,4.82528 0.294308,8.89084 4.804746,11.82023 5.263318,3.42218 9.424695,-0.80079 9.568425,6.65956 0.02738,1.6974 0.273775,6.57059 -0.698126,7.80258 -0.9103,1.14985 -2.765123,1.08142 -4.09293,1.08826 -3.606982,0.0275 -8.877146,-0.95821 -12.319862,-2.067 -3.737025,-1.19776 -6.782768,-2.91571 -9.144075,-6.14624 -6.0162,-8.22009 -4.421461,-27.46645 -4.54466,-37.63717 -0.09582,-7.57671 -3.908134,-12.29932 -11.635425,-13.0043 0,0 0,-13.68873 0,-13.68873 7.912089,-0.44488 11.539604,-5.42759 11.635425,-13.0043 z M 271.80929,91.328243 c 4.15454,4.743143 5.14697,13.613447 5.15381,19.725457 0,0 0,13.0043 0,13.0043 0,9.03456 0,18.10335 11.63543,19.16423 0,0 0,13.68873 0,13.68873 -11.89551,1.69056 -11.63543,9.53421 -11.63543,19.16422 0,0 0,13.0043 0,13.0043 -0.006,4.90057 -0.65706,12.11453 -3.01837,16.42649 -5.31806,9.68477 -17.38469,10.26654 -27.09684,10.26654 0,0 0,-13.68873 0,-13.68873 3.86707,-0.0822 8.65128,-0.5407 11.43008,-3.56592 2.08754,-2.27233 2.22443,-5.16065 2.25866,-8.06952 0,0 0.58176,-25.32415 0.58176,-25.32415 0.74604,-6.16676 2.25865,-11.49852 8.31592,-14.37315 0,0 0,-1.36889 0,-1.36889 -3.14843,-1.72477 -4.90742,-3.55906 -6.47477,-6.84435 -3.42904,-7.18659 -2.32025,-24.3728 -2.42291,-32.85297 -0.11638,-9.68478 -5.00324,-11.56013 -13.68874,-11.635423 0,0 0,-13.688737 0,-13.688737 8.20639,0 19.08209,0.253236 24.9614,6.967573 z M 89.057845,179.2099 c -6.009358,-8.3159 -6.584284,-17.28201 -6.474774,-27.08999 0.212175,-17.74744 12.908479,-34.13286 31.484079,-34.22184 7.03602,-0.0342 12.08031,-0.0684 18.4798,3.53854 10.73198,6.05727 13.62029,16.53599 14.43477,27.94554 0.33537,4.69525 0.616,6.89914 -0.74603,11.63544 -7.41929,-1.32781 -30.10154,-0.70498 -39.0129,-0.68444 -1.40309,0 -4.05871,-0.14373 -5.35913,0.69812 -1.40311,1.1567 -0.73921,3.27844 0,4.77736 1.2662,3.70965 3.9355,7.13183 7.43981,9.04141 8.60338,4.70209 21.99096,2.54611 30.77228,-0.82817 0,0 2.73775,14.37317 2.73775,14.37317 -17.45998,6.04357 -41.57953,7.65201 -53.755655,-9.18514 z m 81.817555,-1.0814 c 2.78567,0.006 6.3242,0.25323 8.89769,-0.84187 5.05798,-2.14228 6.02988,-6.66641 1.90958,-10.43081 -7.64517,-6.99493 -26.56984,-6.1736 -30.49167,-22.26472 -0.54754,-2.23126 -0.91715,-4.54466 -0.78709,-6.84437 0.10951,-1.83429 0.74603,-5.14012 1.39625,-6.84436 4.79789,-12.66893 18.71933,-13.13434 30.02624,-13.0043 4.9211,0.0616 12.0187,1.28674 16.42647,3.42219 0,0 -3.42217,13.68872 -3.42217,13.68872 -5.21542,-1.73847 -9.5479,-2.78565 -15.05761,-3.20315 -4.87319,-0.36275 -15.393,2.50504 -11.12894,9.3494 2.40237,3.86023 7.7752,5.61239 11.81337,7.14552 6.9881,2.66246 15.08498,5.75611 18.88361,12.71684 1.34834,2.47765 2.18336,6.07779 2.30655,8.89767 0.11637,2.72405 -0.0478,4.89371 -0.76656,7.5288 -3.94236,14.55797 -20.39623,15.20134 -32.74346,15.05761 -4.29826,-0.0547 -9.54105,-1.01296 -13.68874,-2.15598 -1.39625,-0.38329 -3.92866,-0.98559 -4.63363,-2.29971 -0.82132,-1.23884 -0.19849,-3.12788 0,-4.44199 0,0 1.89589,-9.58212 1.89589,-9.58212 8.24747,1.8822 9.57528,4.09293 19.16422,4.10663 z m 56.12382,0 c 1.56735,-0.006 3.2853,0.0275 4.79106,-0.44489 4.55835,-1.43732 6.85121,-5.62608 3.66173,-9.69847 -2.81303,-3.58646 -9.71899,-5.76979 -13.92828,-7.33031 -5.23595,-1.94379 -10.80041,-4.87318 -14.34579,-9.28096 -6.23523,-7.74098 -5.16751,-20.37568 2.08752,-27.11053 4.74999,-4.40778 11.3685,-6.28998 17.73376,-6.36527 5.20171,-0.0616 18.04859,0.0616 22.38793,2.53242 3.04574,1.73162 -0.3696,12.73053 -2.14914,13.46972 -1.38256,0.58176 -3.7644,-0.39014 -5.18118,-0.75289 -2.92254,-0.73919 -6.56374,-1.10194 -9.58211,-1.2183 -4.57889,-0.17794 -14.45531,1.70426 -11.30006,8.54861 2.19705,4.75684 10.12967,6.9402 14.72224,8.72657 10.82779,4.22982 18.45926,8.69236 18.47978,21.39548 0,0 0,2.73775 0,2.73775 -0.24639,20.44413 -28.541,21.03959 -43.1195,18.02122 -3.27846,-0.6776 -6.46109,-1.75899 -9.58212,-2.96361 0,0 2.73774,-14.37317 2.73774,-14.37317 9.99964,1.80691 7.7273,4.18191 22.58642,4.10663 z m -99.72243,-40.36808 c -4.2572,-6.22837 -14.11308,-7.33031 -20.04716,-2.99783 -4.64732,3.39481 -5.84509,7.92578 -6.85121,13.2507 0,0 29.43078,0 29.43078,0 -0.0753,-3.40849 -0.56123,-7.37139 -2.53241,-10.25287 z m -22.79175,30.10152 c 0,0 -0.68443,0.68444 -0.68443,0.68444 0,0 0,-0.68444 0,-0.68444 0,0 0.68443,0 0.68443,0 z"
     inkscape:connector-curvature="0"
     style="opacity:0.03999999;fill:#000000;fill-opacity:1;stroke:none;stroke-width:0.73891753" />
</svg>
