<?xml version="1.0" encoding="UTF-8" standalone="no"?>
<svg
   xmlns:dc="http://purl.org/dc/elements/1.1/"
   xmlns:cc="http://creativecommons.org/ns#"
   xmlns:rdf="http://www.w3.org/1999/02/22-rdf-syntax-ns#"
   xmlns:svg="http://www.w3.org/2000/svg"
   xmlns="http://www.w3.org/2000/svg"
   xmlns:sodipodi="http://sodipodi.sourceforge.net/DTD/sodipodi-0.dtd"
   xmlns:inkscape="http://www.inkscape.org/namespaces/inkscape"
   width="4.1666698in"
   height="4.1666698in"
   viewBox="0 0 300.00001 300.00023"
   id="svg2"
   version="1.1"
   inkscape:version="0.91 r13725"
   sodipodi:docname="sass.svg">
  <metadata
     id="metadata9">
    <rdf:RDF>
      <cc:Work
         rdf:about="">
        <dc:format>image/svg+xml</dc:format>
        <dc:type
           rdf:resource="http://purl.org/dc/dcmitype/StillImage" />
        <dc:title></dc:title>
      </cc:Work>
    </rdf:RDF>
  </metadata>
  <defs
     id="defs7" />
  <sodipodi:namedview
     pagecolor="#ffffff"
     bordercolor="#666666"
     borderopacity="1"
     objecttolerance="10"
     gridtolerance="10"
     guidetolerance="10"
     inkscape:pageopacity="0"
     inkscape:pageshadow="2"
     inkscape:window-width="929"
     inkscape:window-height="577"
     id="namedview5"
     showgrid="false"
     inkscape:zoom="0.52444444"
     inkscape:cx="30.14851"
     inkscape:cy="225"
     inkscape:window-x="62"
     inkscape:window-y="0"
     inkscape:window-maximized="0"
     inkscape:current-layer="svg2" />
  <path
     id="Selection"
     d="M 23.845507,156.23711 C 17.51333,149.73902 10.918464,139.43195 11.457667,129.96825 12.314862,115.00883 24.039067,99.21295 34.899166,89.68012 53.259714,73.552425 72.24242,62.934276 95.041027,54.327769 c 9.691823,-3.663814 24.243393,-7.880657 34.564283,-8.005088 16.58395,-0.19356 35.55974,0.165908 48.32779,12.560661 7.88065,7.652533 9.42913,18.567934 7.61105,28.916478 -3.29052,18.72002 -19.01727,36.54828 -35.89155,44.60176 -10.39003,4.9496 -25.79187,9.29779 -37.32943,9.31853 0,0 -9.678,0 -9.678,0 -6.062583,-0.076 -12.830267,-1.74895 -17.973433,-5.00491 -3.228304,-2.04621 -6.975073,-5.29525 -8.592681,-8.82081 -0.760415,-1.64526 -1.64526,-5.95197 1.721301,-4.72839 1.189012,0.43551 3.567034,2.61997 4.797523,3.49099 2.799707,1.99091 5.675456,3.22831 8.986714,4.07168 18.484986,4.70765 42.458776,-4.31363 57.376716,-15.09768 2.33655,-1.69365 4.839,-3.73295 6.91286,-5.73768 10.05821,-9.7333 23.08203,-29.822061 7.60414,-40.903371 -7.92213,-5.675456 -19.04492,-5.488808 -28.34271,-5.385116 -9.36001,0.110606 -23.67654,3.981806 -32.49043,7.313803 -17.123152,6.463522 -36.603583,17.316704 -50.463861,29.234474 -9.664175,8.30925 -19.881377,20.35836 -19.328349,33.96287 0.649809,16.03091 19.708556,28.35654 31.080206,37.46768 0,0 8.986714,7.50045 8.986714,7.50045 1.527741,1.31344 2.654537,2.61997 4.839,2.1499 0,0 9.678,-5.04639 9.678,-5.04639 3.670727,-2.03929 13.03765,-6.72621 15.70601,-9.15262 6.7193,-6.09714 11.80716,-13.70128 21.62342,-15.66453 1.29271,-0.12443 2.83427,-0.24887 4.14772,0 9.22175,0.77424 8.29542,9.87847 8.29542,16.61851 3.61543,-1.01619 8.53738,-0.71203 8.76551,4.14771 0.0899,1.7766 -1.74204,7.54193 -2.28816,9.678 -1.9356,7.66636 -5.02565,17.88356 -5.09477,25.57757 3.96106,-4.88048 6.60869,-11.54447 9.1941,-17.28214 0,0 14.46861,-32.49043 14.46861,-32.49043 1.23048,-2.69601 2.38493,-5.44042 3.19374,-8.29543 0.55994,-2.01164 0.98162,-4.97726 2.5301,-6.42896 1.83191,-1.7213 4.88739,-1.83882 7.25159,-1.86647 2.60615,-0.0276 7.50736,-0.50464 8.91067,2.23286 0.81572,1.59687 -0.10369,3.78824 -0.61524,5.37129 -1.16136,3.59468 -1.97708,5.82753 -2.06695,9.678 -0.19356,8.53046 1.51392,9.42913 3.44952,16.59085 0,0 1.38257,0 1.38257,0 0,0 13.23121,-24.88628 13.23121,-24.88628 0,0 5.3229,-14.91104 5.3229,-14.91104 1.81808,-2.17063 5.77915,-2.33654 8.40603,-2.37111 2.49554,-0.0276 6.87138,-0.40094 8.21939,2.23286 0.81572,1.59687 -0.10369,3.78824 -0.61524,5.37129 -1.04385,3.23521 -1.90104,6.24922 -2.04621,9.678 -0.45625,10.77023 3.41495,13.41094 5.50263,20.73857 5.25378,-1.825 8.86229,-3.45643 14.517,-4.52101 16.74986,-3.15918 36.92157,0.49081 46.25393,16.27287 1.89412,3.20065 3.24213,8.03274 3.45643,11.75185 0.41477,7.1479 -2.88266,13.36256 -8.9245,17.19228 -1.08532,0.68437 -7.9567,3.58777 -6.10405,-0.42169 0.51155,-1.11297 2.9587,-2.78588 3.96798,-3.76059 2.91722,-2.82045 5.09477,-6.76077 4.66618,-10.93614 -0.29726,-2.9034 -1.73513,-5.91741 -3.37348,-8.29543 -6.71929,-9.7333 -19.70855,-13.00308 -30.95577,-13.13443 -3.85738,-0.0415 -14.92486,0.78807 -17.69,3.34583 -1.53466,1.41713 -0.81572,3.19374 -0.44243,4.9496 0.71203,3.36656 1.16828,5.5372 0.38021,8.98672 -2.25359,9.83699 -14.71056,18.65088 -24.41621,19.79842 -5.79297,0.68437 -8.5512,-3.40804 -8.23321,-8.73785 0.40786,-6.74695 4.84591,-13.65981 9.13188,-18.66472 1.44479,-1.69365 5.13625,-4.9496 5.55794,-6.91285 0.38712,-1.7697 -1.58305,-5.15008 -2.30198,-6.91286 0,0 -4.15463,-13.82572 -4.15463,-13.82572 -1.58996,5.57868 -6.97507,14.1921 -10.09277,19.356 -0.97471,1.6107 -4.05785,6.22849 -4.47262,7.60415 -0.6982,2.34346 1.36183,7.47971 1.81808,10.36928 1.14754,7.26542 -1.14062,13.61833 -6.6156,18.54029 -5.0533,4.54174 -13.9778,7.72857 -20.73166,8.30234 -2.91723,0.24886 -7.23085,-0.27652 -8.46825,-3.41495 -1.32036,-3.35274 1.85264,-7.1479 3.77442,-9.60196 2.75823,-3.51865 13.62524,-15.70601 14.7866,-18.66472 1.05075,-2.6891 -0.82954,-5.22612 -1.94943,-7.60414 0,0 -5.3782,-15.89957 -5.3782,-15.89957 -1.00236,4.27906 -4.43805,11.64816 -6.31835,15.89957 0,0 -16.80516,33.18171 -16.80516,33.18171 -2.86883,4.79753 -9.09732,12.91322 -15.51245,8.47517 -4.98417,-3.44952 -3.47025,-11.68273 -4.91504,-16.77059 -1.28579,4.76295 -6.41513,15.83735 -9.88538,19.12096 -4.33437,4.10624 -10.73567,3.85046 -14.77278,-0.53229 -1.354923,-1.45861 -2.613063,-3.64999 -3.463343,-5.45425 -6.131706,-13.09986 -3.58777,-24.01526 -0.9125,-37.32942 -2.70984,1.20975 -11.97998,5.77914 -12.857913,8.36455 -0.53229,1.5554 0.9678,5.72385 1.334182,7.53502 0.691285,3.33891 0.470074,8.21938 0.463161,11.75185 -0.03456,22.39766 -19.342174,43.51644 -42.168428,43.551 0,0 -4.147715,0 -4.147715,0 -3.19374,-0.0415 -6.816077,-0.44242 -9.650348,-2.01855 C 18.81986,246.19412 18.91664,230.97201 23.07818,221.90925 29.196059,208.58126 51.960097,194.47903 65.315737,188.72754 50.881691,176.33278 38.963926,171.73573 23.845507,156.23711 Z m 93.019413,45.62486 c 0,0 9.87847,-26.26886 9.87847,-26.26886 0.63598,-2.21212 3.56703,-10.81171 1.59687,-12.42241 -1.09223,-0.89175 -3.17992,-0.0829 -4.26523,0.45625 -3.73986,1.85956 -6.44279,5.71694 -8.56503,9.20102 -6.85065,11.26104 -10.83936,25.99234 -5.95197,38.712 4.16154,-1.56231 5.65471,-5.8068 7.30689,-9.678 z M 95.732307,181.81468 c 0,0 0.69129,0.69129 0.69129,0.69129 0,0 0,-0.69129 0,-0.69129 0,0 -0.69129,0 -0.69129,0 z m 111.297003,20.73857 c 10.04438,-2.86883 11.06057,-8.86228 11.06057,-17.97343 -6.29761,2.98636 -10.03747,11.344 -11.06057,17.97343 z m -151.391573,2.77206 c -7.244674,5.26068 -15.125331,12.26341 -17.08167,21.42294 -0.815717,3.80899 -1.085318,8.81389 3.269782,10.54902 4.921954,1.96325 12.595225,-1.54848 16.577031,-4.3551 11.883201,-8.39221 18.498806,-23.82862 13.825714,-37.99306 -5.938144,2.64762 -11.343998,6.56721 -16.590857,10.3762 z m 112.679573,6.21466 c 6.21466,-1.54157 11.7726,-8.17791 12.44314,-14.517 0,0 -12.44314,14.517 -12.44314,14.517 z m -0.69128,0 c 0,0 0.69128,0.69128 0.69128,0.69128 0,0 0,-0.69128 0,-0.69128 0,0 -0.69128,0 -0.69128,0 z"
     inkscape:connector-curvature="0"
     style="fill:#000000;stroke:none;stroke-width:0.69128573;opacity:0.04" />
</svg>
