<?xml version="1.0" encoding="UTF-8" standalone="no"?>
<svg
   xmlns:dc="http://purl.org/dc/elements/1.1/"
   xmlns:cc="http://creativecommons.org/ns#"
   xmlns:rdf="http://www.w3.org/1999/02/22-rdf-syntax-ns#"
   xmlns:svg="http://www.w3.org/2000/svg"
   xmlns="http://www.w3.org/2000/svg"
   viewBox="0 0 375.0003 375.00029"
   height="4.1666698in"
   width="4.1666698in"
   version="1.1"
   id="svg4201">
  <metadata
     id="metadata4207">
    <rdf:RDF>
      <cc:Work
         rdf:about="">
        <dc:format>image/svg+xml</dc:format>
        <dc:type
           rdf:resource="http://purl.org/dc/dcmitype/StillImage" />
        <dc:title></dc:title>
      </cc:Work>
    </rdf:RDF>
  </metadata>
  <defs
     id="defs4205" />
  <g
     style="opacity:0.1"
     transform="matrix(0.46174928,0,0,0.46174928,55.018461,29.59954)"
     id="g4751">
    <path
       id="path4767"
       d="M 6.1482335,400.40822 13.321173,57.383513 289.04941,17.419995 550.43177,49.185868 565.80236,344.04941 553.52097,492.07885 445.87813,607.50883 355.65527,671.70353 97.347031,656.33295 13.833525,631.86585 Z M 332,679.50538 c 10.725,-0.81407 22.14899,-2.1711 25.38664,-3.01563 32.39495,-8.45012 76.44729,-39.40781 125.19253,-87.97879 C 525.78932,545.45529 556.20826,503.56978 567.19413,472 L 570.5,462.5 570.76671,263 C 570.94703,128.12768 570.69752,61.880259 569.9965,58.5 567.66973,47.280493 560.75367,37.228008 551.17345,31.140737 536.00745,21.504253 473.61619,10.941506 402.5,5.9705449 332.98121,1.1112405 216.45628,2.5182036 152,8.9951703 c -5.225,0.5250404 -14.45,1.4343127 -20.5,2.0206047 -6.05,0.586291 -14.15,1.483394 -18,1.993562 -3.85,0.510167 -10.825,1.417536 -15.5,2.016374 -16.979841,2.175012 -52.680541,8.1923 -60,10.11289 -4.125,1.08238 -9.428783,2.892012 -11.786184,4.021404 C 20.214438,32.034209 11.910119,39.911822 8.7404737,45.735504 2.5879721,57.039676 2.9988689,35.828179 3.0118689,341.4601 c 0.00992,233.1867 0.2371894,279.88614 1.3830582,284.18971 2.0504361,7.70088 6.3032019,14.77458 12.2822849,20.42935 9.829352,9.29619 18.161166,11.80646 60.822788,18.32513 50.52424,7.72008 104.06845,12.54527 167,15.04939 44.29975,1.76273 64.79828,1.77485 87.5,0.0517 z m -81,-17.81371 c -0.275,-0.27713 -10.77993,-0.7708 -23.34429,-1.09703 -12.56436,-0.32623 -23.16436,-0.79097 -23.55556,-1.03274 -0.3912,-0.24178 -7.18627,-0.71963 -15.10015,-1.0619 -7.91388,-0.34227 -14.67035,-0.79626 -15.01437,-1.00888 -0.34402,-0.21262 -4.64402,-0.62678 -9.55556,-0.92036 -4.91154,-0.29358 -12.98007,-0.99942 -17.93007,-1.56854 -4.95,-0.56911 -13.275,-1.49496 -18.5,-2.05744 -25.51926,-2.74719 -40.273925,-4.80743 -68,-9.49508 -22.818215,-3.85787 -27.832361,-5.52985 -34.294007,-11.43543 -3.659009,-3.34413 -6.284019,-6.91089 -8.15582,-11.08182 l -2.760188,-6.15052 0.355008,-95.80772 C 15.340247,466.27997 15.725,423.01653 16,422.83325 c 0.275,-0.18329 77.9,-0.20979 172.5,-0.0589 l 172,0.27434 -6,3.08941 c -3.3,1.69917 -6.225,3.38611 -6.5,3.74875 -0.275,0.36264 -1.81119,1.49511 -3.41376,2.5166 C 339.42367,435.69412 333,442.20038 333,444.13867 c 0,1.03617 -1.74532,4.46636 -3.8785,7.62264 -4.99709,7.39379 -6.98859,11.3545 -9.42205,18.73869 -1.77536,5.3872 -2.01751,9.47256 -2.37093,40 -0.21649,18.7 -0.0415,46.6 0.38893,62 l 0.78255,28 6.14862,-0.0908 c 11.46162,-0.16932 25.95981,-9.08598 33.67651,-20.71168 7.13381,-10.74754 7.41254,-12.70453 7.88902,-55.38952 l 0.42633,-38.19204 2.9589,-4.80796 c 1.65031,-2.68162 5.09671,-6.2453 7.79278,-8.05797 l 4.83387,-3.25 37.17689,0 c 30.15654,0 38.28698,-0.28914 43.05553,-1.53119 17.59145,-4.58199 31.3122,-18.62531 35.01455,-35.83774 2.29502,-10.66968 -0.9457,-9.6311 30.0522,-9.6311 15.02117,0 28.06282,-0.28841 28.98144,-0.64092 1.52766,-0.58622 1.63778,0.75809 1.29021,15.75 -0.32081,13.83771 -0.73438,17.40342 -2.65505,22.89092 -11.33573,32.38704 -36.31923,79.89387 -82.1006,124.60924 -46.65913,45.5727 -101.22434,81.39178 -127.56591,84.1459 -6.86204,0.71745 -93.85347,-7.43683 -94.47529,-8.06347 z M 499.68311,430.8125 c -0.31922,-0.79773 -0.55618,-0.56078 -0.60416,0.60417 -0.0434,1.05416 0.19293,1.64479 0.52522,1.3125 0.33229,-0.33229 0.36781,-1.1948 0.0789,-1.91667 z"
       style="fill:#ffffff" />
    <path
       id="path4765"
       d="M 244.5,679.45368 C 181.56845,676.94956 128.02424,672.12437 77.5,664.40429 34.838378,657.88562 26.506564,655.37535 16.677212,646.07916 10.698129,640.42439 6.4453632,633.35069 4.3949271,625.64981 3.2490583,621.34624 3.0217874,574.6468 3.0118689,341.4601 2.9988689,35.828179 2.5879721,57.039676 8.7404737,45.735504 11.910119,39.911822 20.214438,32.034209 26.213816,29.160005 28.571217,28.030613 33.875,26.220981 38,25.138601 c 7.319459,-1.92059 43.020159,-7.937878 60,-10.11289 4.675,-0.598838 11.65,-1.506207 15.5,-2.016374 3.85,-0.510168 11.95,-1.407271 18,-1.993562 6.05,-0.586292 15.275,-1.4955643 20.5,-2.0206047 74.3557,-7.471722 201.76458,-7.9609968 275,-1.0560532 41.74796,3.9361729 55.1028,5.7626519 84.88513,11.6093419 21.24163,4.170032 33.12558,7.676467 39.28832,11.592278 9.58022,6.087271 16.49628,16.139756 18.82305,27.359263 0.70102,3.380259 0.95053,69.62768 0.77021,204.5 L 570.5,462.5 567.19413,472 c -10.98587,31.56978 -41.40481,73.45529 -84.61496,116.51096 -48.74524,48.57098 -92.79758,79.52867 -125.19253,87.97879 -8.42865,2.19858 -41.82888,4.51771 -62.88664,4.3665 -9.9,-0.0711 -32.4,-0.70225 -50,-1.40257 z m 90.54278,-4.52155 c 18.74378,-1.31667 28.07212,-3.81486 44.45722,-11.90594 28.19164,-13.92123 64.72738,-42.24237 100.0056,-77.52059 42.82003,-42.82003 72.7194,-84.11231 83.71686,-115.6165 L 566.5,460.5 l 0.27303,-197 C 566.95401,132.91879 566.70369,64.893784 566.03057,61.735917 564.69603,55.475101 562.16356,49.502796 561.23687,50.431014 560.83159,50.836965 560.5,141.69356 560.5,252.33455 l 0,201.16545 -3.3053,9.5 c -22.07449,63.44581 -134.15508,175.016 -196.8056,195.90935 -7.55738,2.52031 -11.46762,3.1237 -26.10045,4.02754 C 296.39807,665.27731 226.88546,663.40812 166.5,658.42506 110.82462,653.83068 42.979062,643.86912 31.433421,638.59364 24.978933,635.64442 19.428779,629.99663 16.109366,623 L 13.5,617.5 13.5,334.33373 C 13.5,178.59229 13.198959,50.866246 12.83102,50.498087 11.868361,49.534852 10.243808,52.966379 8.5086015,59.628285 7.1814878,64.723419 7,98.521716 7,340.57361 c 0,180.64657 0.3460978,276.97838 1.0076518,280.46674 3.1613762,16.66987 14.7937522,28.3913 32.1762332,32.42257 23.628545,5.47983 79.540575,12.99253 126.316115,16.97264 56.44872,4.80321 134.52461,6.88621 168.54278,4.49657 z M 346.5,660.53279 c 26.34157,-2.75412 72.70913,-33.44967 119.36826,-79.02237 C 511.64963,536.79505 543.80607,493.38704 555.1418,461 c 1.92067,-5.4875 2.33424,-9.05321 2.65505,-22.89092 0.34757,-14.99191 0.23745,-16.33622 -1.29021,-15.75 C 555.58802,422.71159 542.54637,423 527.5252,423 c -30.9979,0 -27.75718,-1.03858 -30.0522,9.63107 -3.70235,17.21243 -17.4231,31.25575 -35.01455,35.83774 C 457.6899,469.71086 449.55946,470 419.40292,470 l -37.17689,0 -4.83387,3.25 c -2.69607,1.81267 -6.14247,5.37635 -7.79278,8.05797 l -2.9589,4.80796 -0.42633,38.19204 c -0.47648,42.68499 -0.75521,44.64198 -7.88902,55.38952 -7.7167,11.6257 -22.21489,20.54236 -33.67651,20.71168 L 318.5,600.5 l -0.78255,-28 c -0.4304,-15.4 -0.60542,-43.3 -0.38893,-62 0.35342,-30.52744 0.59557,-34.6128 2.37093,-40 2.43346,-7.38419 4.42496,-11.3449 9.42205,-18.73869 2.13318,-3.15628 3.8785,-6.58647 3.8785,-7.62264 0,-1.93829 6.42367,-8.44455 11.58624,-11.73522 1.60257,-1.02149 3.13876,-2.15396 3.41376,-2.5166 0.275,-0.36264 3.2,-2.04958 6.5,-3.74875 l 6,-3.08941 -172,-0.27434 c -94.6,-0.15089 -172.225,-0.12439 -172.5,0.0589 -0.275,0.18328 -0.659753,43.44672 -0.855007,96.14096 l -0.355008,95.80772 2.760188,6.15052 c 1.871801,4.17093 4.496811,7.73769 8.15582,11.08182 6.461646,5.90558 11.475792,7.57756 34.294007,11.43543 27.726075,4.68765 42.48074,6.74789 68,9.49508 5.225,0.56248 13.55,1.48833 18.5,2.05744 4.95,0.56912 13.01853,1.27496 17.93007,1.56854 4.91154,0.29358 9.21154,0.70774 9.55556,0.92036 0.34402,0.21262 7.10049,0.66661 15.01437,1.00888 7.91388,0.34227 14.70895,0.82012 15.10015,1.0619 0.3912,0.24177 10.9912,0.70651 23.55556,1.03274 12.56436,0.32623 23.06929,0.8199 23.34429,1.09703 0.62182,0.62664 88.63796,-0.44143 95.5,-1.15888 z M 499.07895,431.41667 c 0.048,-1.16495 0.28494,-1.4019 0.60416,-0.60417 0.28887,0.72187 0.25335,1.58438 -0.0789,1.91667 -0.33229,0.33229 -0.56864,-0.25834 -0.52522,-1.3125 z M 329.5,598.63865 c 17.21051,-4.60421 31.32445,-19.41835 34.41172,-36.11891 C 364.56365,558.99312 365,542.55497 365,521.5221 l 0,-35.11057 3.25633,-5.45577 c 2.04744,-3.43034 5.05935,-6.6623 8.11302,-8.70576 l 4.85668,-3.25 34.13698,-0.0309 c 38.76299,-0.0351 46.34698,-0.70898 55.34072,-4.91766 7.1792,-3.35955 16.28644,-11.47217 20.00842,-17.82325 5.30463,-9.05168 7.95866,-22.37308 4.70606,-23.62122 -0.86998,-0.33385 -26.85748,-0.59918 -57.75,-0.58963 C 374.59,422.03686 373.16624,422.16257 359.5,428.9192 344.60276,436.28443 332.47267,448.58107 325.38754,463.5 318.95412,477.04666 319,476.4971 319,540.0101 c 0,43.45881 0.29445,57.88435 1.2,58.7899 1.52329,1.52329 3.10542,1.49584 9.3,-0.16135 z M 130.28039,291.52851 c 13.15075,-2.78665 22.56068,-10.28781 26.8222,-21.38142 1.54927,-4.03305 2.30981,-8.71365 2.66094,-16.37616 0.46414,-10.12887 0.34124,-11.0365 -2.19697,-16.22441 -5.41603,-11.06996 -19.12352,-19.94867 -43.98728,-28.49171 -22.380311,-7.68974 -26.207661,-10.14363 -23.554188,-15.1017 1.940367,-3.6256 6.97692,-4.95483 18.692788,-4.9333 11.76367,0.0216 20.7714,1.0566 32.15197,3.69428 l 7.36986,1.70811 1.82363,-2.2521 c 3.45208,-4.26313 6.15637,-13.30023 6.29994,-21.05286 l 0.13672,-7.38276 -4,-1.43451 c -15.66994,-5.61964 -46.13061,-8.03619 -62.390542,-4.94967 -19.001163,3.60687 -29.816305,12.47722 -33.687445,27.62971 -2.274922,8.90454 -1.558224,18.90207 1.832343,25.56014 6.091327,11.96155 18.433117,19.25018 54.073034,31.93362 12.10493,4.30787 15.83743,8.61271 12.64297,14.58162 -4.35751,8.14208 -28.307168,6.85593 -48.820387,-2.62176 -8.445897,-3.90225 -8.887595,-3.81073 -14.972744,3.10237 -6.857345,7.79035 -9.186022,18.27264 -4.927229,22.17938 5.147263,4.72176 17.154168,9.27188 31.199604,11.82336 9.814571,1.7829 34.396346,1.77703 42.830786,-0.0102 z m 131.5262,-0.097 c 5.8098,-0.86268 12.84255,-2.32518 15.62834,-3.25 L 282.5,286.5 l -0.0872,-8.65708 c -0.0731,-7.25729 -0.52196,-9.54573 -2.7761,-14.15303 -1.47891,-3.02277 -3.23967,-5.70345 -3.91282,-5.95706 -0.67314,-0.25361 -5.27041,0.36161 -10.21616,1.36717 -15.00916,3.05162 -31.16284,4.32099 -37.70483,2.96288 -7.20456,-1.49566 -13.38511,-5.92898 -15.85745,-11.37458 -1.67529,-3.69 -1.90414,-6.72034 -1.92349,-25.47042 -0.0167,-16.18426 0.31892,-22.09795 1.40111,-24.688 1.84647,-4.41923 8.26876,-9.01657 14.77678,-10.57782 6.70153,-1.60768 24.09184,-0.65195 36.80015,2.02245 5.225,1.09957 10.26451,2.00513 11.19892,2.01235 1.11633,0.009 2.80996,-2.30156 4.93888,-6.73686 2.68485,-5.59348 3.31372,-8.23846 3.67041,-15.43738 l 0.43044,-8.68737 -5.72524,-1.66437 c -16.92645,-4.92066 -46.95017,-6.94221 -60.5134,-4.07447 -15.78672,3.33785 -28.9082,12.5458 -34.95897,24.53231 -5.26423,10.42839 -6.32626,19.07332 -5.7652,46.92893 0.51895,25.76514 1.16237,30.22893 5.71193,39.62706 5.48766,11.336 17.83259,20.05147 32.51224,22.95352 9.72178,1.92191 34.37373,1.92362 47.30659,0.003 z m 112.60894,-0.81764 c 10.39797,-3.42227 16.65784,-8.54583 20.96105,-17.15614 3.4416,-6.88631 4.57409,-12.44301 4.57701,-22.45773 0.004,-12.86985 -4.03553,-19.9066 -16.14894,-28.13266 -7.48523,-5.08312 -14.75677,-8.31874 -33.32076,-14.82672 -8.24114,-2.8891 -16.23991,-5.98811 -17.77506,-6.88669 -5.69421,-3.33305 -4.18415,-8.85187 3.07784,-11.24854 5.48389,-1.80985 29.56809,-0.57529 42.0857,2.15732 l 10.37236,2.2643 1.83713,-2.41351 c 3.5053,-4.60504 6.3059,-13.95523 6.3634,-21.24506 l 0.0547,-6.93936 -4,-1.4318 c -15.69913,-5.61953 -46.13451,-8.03276 -62.39054,-4.94698 -22.58499,4.28717 -33.66089,15.81234 -34.86828,36.28261 -0.68839,11.67131 1.31478,17.11324 9.17008,24.91199 8.61999,8.55792 16.65784,12.66294 45.08874,23.02736 15.11037,5.50844 18.82109,9.22223 15.47036,15.48313 -4.15448,7.76271 -27.57057,6.92309 -46.7668,-1.67691 -10.60507,-4.75111 -9.82719,-4.7133 -14.27615,-0.69393 -8.24889,7.45238 -12.4673,19.84622 -8.31852,24.44013 4.10728,4.54795 17.26294,9.79507 30.89111,12.32089 10.85745,2.0123 40.85663,1.49158 47.91553,-0.8317 z m 121.8209,-0.82107 c 15.849,-5.9635 22.64177,-16.4729 23.52968,-36.40381 0.52102,-11.69531 -0.88559,-16.19484 -7.27287,-23.2648 -7.2482,-8.02289 -18.73283,-13.99693 -43.49324,-22.62418 -7.425,-2.58708 -14.75602,-5.44091 -16.29117,-6.34182 -4.08234,-2.39579 -4.57258,-5.7495 -1.31606,-9.00321 l 2.65728,-2.65498 16.22497,0.0211 c 13.19764,0.0171 18.15644,0.44962 26.57659,2.31799 5.69338,1.26333 10.93279,2.07393 11.64313,1.80135 3.47214,-1.33238 9.05984,-19.13064 8.33697,-26.55538 -0.30652,-3.1483 -0.74933,-3.54987 -5.83171,-5.28863 -15.59449,-5.33509 -45.34502,-7.41869 -61.57859,-4.31269 -21.77562,4.16636 -33.06667,15.89082 -34.18455,35.49675 -0.63414,11.12195 1.19876,17.06329 7.38761,23.94677 8.16667,9.08331 16.82859,13.63474 46.87553,24.63087 12.07129,4.41767 16.5,7.4427 16.5,11.27031 0,4.37913 -2.59526,6.99808 -8.69077,8.77009 -9.76604,2.83907 -26.34781,-0.2902 -44.30923,-8.36192 -1.925,-0.86508 -3.81928,-1.73749 -4.2095,-1.9387 -1.23037,-0.6344 -8.79536,6.85429 -11.38082,11.26604 -1.3638,2.32716 -2.7524,6.5342 -3.08577,9.34899 -0.73468,6.20325 0.55389,7.99399 8.67609,12.05727 13.76333,6.88536 26.02621,9.05207 49,8.65774 15.8728,-0.27246 18.12637,-0.53607 24.23643,-2.8351 z"
       style="fill:#f3f3f3" />
    <path
       id="path4763"
       d="M 241,674.91823 C 189.85342,672.88759 147.25492,669.39097 101.5,663.46762 80.70471,660.77551 50.379835,655.82752 40.183885,653.46292 22.801404,649.43165 11.169028,637.71022 8.0076518,621.04035 7.3460978,617.55199 7,521.22018 7,340.57361 7,98.521716 7.1814878,64.723419 8.5086015,59.628285 10.243808,52.966379 11.868361,49.534852 12.83102,50.498087 13.198959,50.866246 13.5,178.59229 13.5,334.33373 l 0,283.16627 2.609366,5.5 c 3.319413,6.99663 8.869567,12.64442 15.324055,15.59364 11.545641,5.27548 79.391199,15.23704 135.066579,19.83142 60.38546,4.98306 129.89807,6.85225 167.78865,4.51183 14.63283,-0.90384 18.54307,-1.50723 26.10045,-4.02754 C 423.03962,638.016 535.12021,526.44581 557.1947,463 l 3.3053,-9.5 0,-201.16545 c 0,-110.64099 0.33159,-201.497585 0.73687,-201.903536 0.92669,-0.928218 3.45916,5.044087 4.7937,11.304903 0.67312,3.157867 0.92344,71.182873 0.74246,201.764083 l -0.27303,197 -3.27754,9.3891 c -10.99746,31.50419 -40.89683,72.79647 -83.71686,115.6165 -35.27822,35.27822 -71.81396,63.59936 -100.0056,77.52059 -16.3851,8.09108 -25.71344,10.58927 -44.45722,11.90594 -16.87223,1.1852 -64.01602,1.17824 -94.04278,-0.0139 z m 90,-4.40065 c 25.41853,-1.85906 32.1234,-3.65869 50.94542,-13.67409 28.26772,-15.04156 58.65485,-39.21646 94.58294,-75.24677 37.68272,-37.78994 59.89087,-66.25648 74.44622,-95.42562 2.21398,-4.43685 4.02542,-8.37482 4.02542,-8.75105 0,-0.37622 -3.09169,4.44991 -6.87042,10.72475 -18.20276,30.22688 -38.40818,55.21978 -71.08051,87.92238 -45.57052,45.61273 -89.2652,76.90627 -119.04907,85.26132 -14.42131,4.0455 -44.54157,5.27141 -93.33951,3.79896 -87.97135,-2.65447 -158.5818,-9.35645 -217.196558,-20.61516 -14.957313,-2.873 -19.852363,-4.92472 -26.43116,-11.07841 -5.290717,-4.94885 -6.250584,-4.92891 -3.182777,0.0661 4.465981,7.27154 11.286843,12.06015 21.180101,14.86959 25.273533,7.17704 111.644254,17.34372 175.469904,20.65452 58.92134,3.05641 89.73014,3.45136 116.5,1.49347 z M 320.2,598.8 c -0.90555,-0.90555 -1.2,-15.33109 -1.2,-58.7899 0,-63.513 -0.0459,-62.96344 6.38754,-76.5101 7.08513,-14.91893 19.21522,-27.21557 34.11246,-34.5808 13.66624,-6.75663 15.09,-6.88234 78.16821,-6.90184 30.89252,-0.01 56.88002,0.25578 57.75,0.58963 3.2526,1.24814 0.59857,14.56954 -4.70606,23.62122 -3.72198,6.35108 -12.82922,14.4637 -20.00842,17.82325 -8.99374,4.20868 -16.57773,4.8826 -55.34072,4.91766 L 381.22603,469 l -4.85668,3.25 c -3.05367,2.04346 -6.06558,5.27542 -8.11302,8.70576 L 365,486.41153 l 0,35.11057 c 0,21.03287 -0.43635,37.47102 -1.08828,40.99764 -3.08727,16.70056 -17.20121,31.5147 -34.41172,36.11891 -6.19458,1.65719 -7.77671,1.68464 -9.3,0.16135 z m 14.56098,-4.19845 c 9.01077,-3.2156 19.00346,-12.25637 23.62304,-21.37268 3.78525,-7.46983 4.46579,-14.60469 4.99706,-52.38975 0.54442,-38.72046 0.53962,-38.69315 8.14154,-46.29508 7.24138,-7.24137 5.54856,-6.98793 50.47738,-7.55712 44.97687,-0.5698 43.42894,-0.34857 54.89403,-7.84549 9.35446,-6.1168 17.67305,-19.89748 18.33606,-30.37573 L 495.5,424.5 438.72567,424.24173 c -63.96371,-0.29097 -65.38392,-0.17122 -79.22567,6.68021 -17.28154,8.55407 -30.58428,24.03375 -36.5902,42.57806 -2.22863,6.88131 -2.26398,7.74605 -2.08446,51 0.10044,24.2 0.46016,50.56925 0.79937,58.59834 l 0.61675,14.59834 4.12927,-0.78728 c 2.2711,-0.433 6.04671,-1.47153 8.39025,-2.30785 z m -11.01499,0.8111 c -0.25281,-0.25281 -0.24663,-1.57408 0.0138,-2.93615 0.44764,-2.34168 0.83454,-2.4753 7.10684,-2.45454 l 6.63342,0.022 -4.5,2.07014 c -6.68197,3.0739 -8.74377,3.80883 -9.25401,3.29859 z M 95.25,292.31067 c 0.9625,-0.25152 2.5375,-0.25152 3.5,0 0.9625,0.25153 0.175,0.45733 -1.75,0.45733 -1.925,0 -2.7125,-0.2058 -1.75,-0.45733 z m 26.01903,-0.004 c 0.97297,-0.25354 2.32297,-0.23687 3,0.0371 0.67703,0.27393 -0.11903,0.48137 -1.76903,0.46099 -1.65,-0.0204 -2.20394,-0.2445 -1.23097,-0.49804 z m 101,0 c 0.97297,-0.25354 2.32297,-0.23687 3,0.0371 0.67703,0.27393 -0.11903,0.48137 -1.76903,0.46099 -1.65,-0.0204 -2.20394,-0.2445 -1.23097,-0.49804 z m 26.49263,-0.0143 c 1.24391,-0.23919 3.04391,-0.23011 4,0.0202 0.95609,0.25029 -0.0617,0.446 -2.26166,0.4349 -2.2,-0.0111 -2.98225,-0.21589 -1.73834,-0.45508 z m 86.48834,0.0179 c 0.9625,-0.25152 2.5375,-0.25152 3.5,0 0.9625,0.25153 0.175,0.45733 -1.75,0.45733 -1.925,0 -2.7125,-0.2058 -1.75,-0.45733 z m 26.01903,-0.004 c 0.97297,-0.25354 2.32297,-0.23687 3,0.0371 0.67703,0.27393 -0.11903,0.48137 -1.76903,0.46099 -1.65,-0.0204 -2.20394,-0.2445 -1.23097,-0.49804 z m 93.98097,0.004 c 0.9625,-0.25152 2.5375,-0.25152 3.5,0 0.9625,0.25153 0.175,0.45733 -1.75,0.45733 -1.925,0 -2.7125,-0.2058 -1.75,-0.45733 z m 26.01903,-0.004 c 0.97297,-0.25354 2.32297,-0.23687 3,0.0371 0.67703,0.27393 -0.11903,0.48137 -1.76903,0.46099 -1.65,-0.0204 -2.20394,-0.2445 -1.23097,-0.49804 z M 87.8125,291.31689 c 0.721875,-0.28887 1.584375,-0.25335 1.916667,0.0789 0.332291,0.33229 -0.258334,0.56864 -1.3125,0.52522 -1.164943,-0.048 -1.4019,-0.28494 -0.604167,-0.60416 z m 172,0 c 0.72187,-0.28887 1.58438,-0.25335 1.91667,0.0789 0.33229,0.33229 -0.25834,0.56864 -1.3125,0.52522 -1.16495,-0.048 -1.4019,-0.28494 -0.60417,-0.60416 z m 68,0 c 0.72187,-0.28887 1.58438,-0.25335 1.91667,0.0789 0.33229,0.33229 -0.25834,0.56864 -1.3125,0.52522 -1.16495,-0.048 -1.4019,-0.28494 -0.60417,-0.60416 z m 41,0 c 0.72187,-0.28887 1.58438,-0.25335 1.91667,0.0789 0.33229,0.33229 -0.25834,0.56864 -1.3125,0.52522 -1.16495,-0.048 -1.4019,-0.28494 -0.60417,-0.60416 z m 79,0 c 0.72187,-0.28887 1.58438,-0.25335 1.91667,0.0789 0.33229,0.33229 -0.25834,0.56864 -1.3125,0.52522 -1.16495,-0.048 -1.4019,-0.28494 -0.60417,-0.60416 z m 41,0 c 0.72187,-0.28887 1.58438,-0.25335 1.91667,0.0789 0.33229,0.33229 -0.25834,0.56864 -1.3125,0.52522 -1.16495,-0.048 -1.4019,-0.28494 -0.60417,-0.60416 z M 149,281.5 c 1.86578,-1.925 3.61733,-3.5 3.89233,-3.5 0.275,0 -1.02655,1.575 -2.89233,3.5 -1.86578,1.925 -3.61733,3.5 -3.89233,3.5 -0.275,0 1.02655,-1.575 2.89233,-3.5 z m 240,0 c 1.86578,-1.925 3.61733,-3.5 3.89233,-3.5 0.275,0 -1.02655,1.575 -2.89233,3.5 -1.86578,1.925 -3.61733,3.5 -3.89233,3.5 -0.275,0 1.02655,-1.575 2.89233,-3.5 z m 117,3.18709 c 0,-0.1721 1.4625,-1.6346 3.25,-3.25 l 3.25,-2.93709 -2.93709,3.25 C 506.82513,284.77946 506,285.45965 506,284.68709 Z M 191.87244,281.25 c -1.24387,-1.58606 -1.2085,-1.62143 0.37756,-0.37756 0.9625,0.75485 1.75,1.54235 1.75,1.75 0,0.82304 -0.82119,0.29331 -2.12756,-1.37244 z m 90.32251,-5.75 c 0.0204,-1.65 0.2445,-2.20394 0.49804,-1.23097 0.25354,0.97297 0.23687,2.32297 -0.0371,3 -0.27393,0.67703 -0.48137,-0.11903 -0.46099,-1.76903 z M 54.078947,271.41667 c 0.04798,-1.16495 0.284941,-1.4019 0.604167,-0.60417 0.288871,0.72187 0.253344,1.58438 -0.07895,1.91667 -0.332292,0.33229 -0.568641,-0.25834 -0.52522,-1.3125 z m 48.733553,-9.09978 c 0.72187,-0.28887 1.58437,-0.25335 1.91667,0.0789 0.33229,0.33229 -0.25834,0.56864 -1.3125,0.52522 -1.16495,-0.048 -1.4019,-0.28494 -0.60417,-0.60416 z m 12,0 c 0.72187,-0.28887 1.58437,-0.25335 1.91667,0.0789 0.33229,0.33229 -0.25834,0.56864 -1.3125,0.52522 -1.16495,-0.048 -1.4019,-0.28494 -0.60417,-0.60416 z m 113,0 c 0.72187,-0.28887 1.58437,-0.25335 1.91667,0.0789 0.33229,0.33229 -0.25834,0.56864 -1.3125,0.52522 -1.16495,-0.048 -1.4019,-0.28494 -0.60417,-0.60416 z m 14.45653,-0.01 c 0.97297,-0.25354 2.32297,-0.23687 3,0.0371 0.67703,0.27393 -0.11903,0.48137 -1.76903,0.46099 -1.65,-0.0204 -2.20394,-0.2445 -1.23097,-0.49804 z m 99.48097,0.0307 c 0.6875,-0.27741 1.8125,-0.27741 2.5,0 0.6875,0.27741 0.125,0.50439 -1.25,0.50439 -1.375,0 -1.9375,-0.22698 -1.25,-0.50439 z m 120,0 c 0.6875,-0.27741 1.8125,-0.27741 2.5,0 0.6875,0.27741 0.125,0.50439 -1.25,0.50439 -1.375,0 -1.9375,-0.22698 -1.25,-0.50439 z m -210,-1 c 0.6875,-0.27741 1.8125,-0.27741 2.5,0 0.6875,0.27741 0.125,0.50439 -1.25,0.50439 -1.375,0 -1.9375,-0.22698 -1.25,-0.50439 z m -92.67105,-1.92105 c 0.048,-1.16495 0.28494,-1.4019 0.60416,-0.60417 0.28887,0.72187 0.25335,1.58438 -0.0789,1.91667 -0.3323,0.33229 -0.56864,-0.25834 -0.52522,-1.3125 z m 99.73355,0.90022 c 0.72187,-0.28887 1.58438,-0.25335 1.91667,0.0789 0.33229,0.33229 -0.25834,0.56864 -1.3125,0.52522 -1.16495,-0.048 -1.4019,-0.28494 -0.60417,-0.60416 z m 140.26645,-0.90022 c 0.048,-1.16495 0.28494,-1.4019 0.60416,-0.60417 0.28887,0.72187 0.25335,1.58438 -0.0789,1.91667 -0.33229,0.33229 -0.56864,-0.25834 -0.52522,-1.3125 z M 519.15789,259 c 0,-1.375 0.22698,-1.9375 0.50439,-1.25 0.27741,0.6875 0.27741,1.8125 0,2.5 -0.27741,0.6875 -0.50439,0.125 -0.50439,-1.25 z M 59,259.62244 c 0,-0.20765 0.7875,-0.99515 1.75,-1.75 1.586056,-1.24387 1.621426,-1.2085 0.377555,0.37756 C 59.821186,259.91575 59,260.44548 59,259.62244 Z M 214.87244,256.25 c -1.24387,-1.58606 -1.2085,-1.62143 0.37756,-0.37756 0.9625,0.75485 1.75,1.54235 1.75,1.75 0,0.82304 -0.82119,0.29331 -2.12756,-1.37244 z M 126.15789,253 c 0,-1.375 0.22698,-1.9375 0.50439,-1.25 0.27741,0.6875 0.27741,1.8125 0,2.5 -0.27741,0.6875 -0.50439,0.125 -0.50439,-1.25 z m 50.92106,0.41667 c 0.048,-1.16495 0.28494,-1.4019 0.60416,-0.60417 0.28887,0.72187 0.25335,1.58437 -0.0789,1.91667 -0.3323,0.33229 -0.56864,-0.25834 -0.52522,-1.3125 z M 366.15789,253 c 0,-1.375 0.22698,-1.9375 0.50439,-1.25 0.27741,0.6875 0.27741,1.8125 0,2.5 -0.27741,0.6875 -0.50439,0.125 -0.50439,-1.25 z m 119.92106,-0.58333 c 0.048,-1.16495 0.28494,-1.4019 0.60416,-0.60417 0.28887,0.72187 0.25335,1.58437 -0.0789,1.91667 -0.33229,0.33229 -0.56864,-0.25834 -0.52522,-1.3125 z M 123.87244,248.25 c -1.24387,-1.58606 -1.2085,-1.62143 0.37756,-0.37756 0.9625,0.75485 1.75,1.54235 1.75,1.75 0,0.82304 -0.82119,0.29331 -2.12756,-1.37244 z m 240,0 c -1.24387,-1.58606 -1.2085,-1.62143 0.37756,-0.37756 0.9625,0.75485 1.75,1.54235 1.75,1.75 0,0.82304 -0.82119,0.29331 -2.12756,-1.37244 z m 120,0 c -1.24387,-1.58606 -1.2085,-1.62143 0.37756,-0.37756 1.66575,1.30637 2.19548,2.12756 1.37244,2.12756 -0.20765,0 -0.99515,-0.7875 -1.75,-1.75 z M 176.43007,224 c 0,-12.925 0.14251,-18.2125 0.3167,-11.75 0.17418,6.4625 0.17418,17.0375 0,23.5 -0.17419,6.4625 -0.3167,1.175 -0.3167,-11.75 z m 342.64888,19.41667 c 0.048,-1.16495 0.28494,-1.4019 0.60416,-0.60417 0.28887,0.72187 0.25335,1.58437 -0.0789,1.91667 -0.33229,0.33229 -0.56864,-0.25834 -0.52522,-1.3125 z M 209.41683,224.5 c 9.6e-4,-10.45 0.14915,-14.58913 0.3293,-9.19806 0.18015,5.39107 0.17936,13.94107 -0.002,19 -0.18111,5.05893 -0.32851,0.64806 -0.32755,-9.80194 z m -58.96388,4.25 -3.95295,-4.25 4.25,3.95295 c 3.95246,3.6762 4.70953,4.54705 3.95295,4.54705 -0.16338,0 -2.07588,-1.9125 -4.25,-4.25 z m 240,0 -3.95295,-4.25 4.25,3.95295 c 3.95246,3.6762 4.70953,4.54705 3.95295,4.54705 -0.16338,0 -2.07588,-1.9125 -4.25,-4.25 z m 120,0 -3.95295,-4.25 4.25,3.95295 c 3.95246,3.6762 4.70953,4.54705 3.95295,4.54705 -0.16338,0 -2.07588,-1.9125 -4.25,-4.25 z m -429.945871,1.26145 c -0.350339,-0.56686 0.05106,-0.7345 0.940983,-0.39301 1.732417,0.66479 2.049387,1.38156 0.610955,1.38156 -0.517541,0 -1.215913,-0.44485 -1.551938,-0.98855 z M 64,218.5 c -2.429029,-2.475 -4.191416,-4.5 -3.916416,-4.5 0.275,0 2.487387,2.025 4.916416,4.5 2.429029,2.475 4.191416,4.5 3.916416,4.5 -0.275,0 -2.487387,-2.025 -4.916416,-4.5 z m 242.87244,2.75 c -1.24387,-1.58606 -1.2085,-1.62143 0.37756,-0.37756 1.66575,1.30637 2.19548,2.12756 1.37244,2.12756 -0.20765,0 -0.99515,-0.7875 -1.75,-1.75 z m 120,0 c -1.24387,-1.58606 -1.2085,-1.62143 0.37756,-0.37756 0.9625,0.75485 1.75,1.54235 1.75,1.75 0,0.82304 -0.82119,0.29331 -2.12756,-1.37244 z m -125.46745,-5.5 -1.90499,-2.25 2.25,1.90499 c 2.11444,1.79022 2.70524,2.59501 1.90499,2.59501 -0.18976,0 -1.20226,-1.0125 -2.25,-2.25 z m 119.46745,-0.5 c -1.24387,-1.58606 -1.2085,-1.62143 0.37756,-0.37756 1.66575,1.30637 2.19548,2.12756 1.37244,2.12756 -0.20765,0 -0.99515,-0.7875 -1.75,-1.75 z M 295.19495,201.5 c 0.0204,-1.65 0.2445,-2.20394 0.49804,-1.23097 0.25354,0.97297 0.23687,2.32297 -0.0371,3 -0.27393,0.67703 -0.48137,-0.11903 -0.46099,-1.76903 z m 119.96294,0.5 c 0,-1.375 0.22698,-1.9375 0.50439,-1.25 0.27741,0.6875 0.27741,1.8125 0,2.5 -0.27741,0.6875 -0.50439,0.125 -0.50439,-1.25 z M 55.336206,196 c 0,-4.125 0.176518,-5.8125 0.392262,-3.75 0.215745,2.0625 0.215745,5.4375 0,7.5 -0.215744,2.0625 -0.392262,0.375 -0.392262,-3.75 z m 38.170873,6.01145 c -0.350339,-0.56686 0.05106,-0.7345 0.940983,-0.39301 1.732417,0.66479 2.049387,1.38156 0.610955,1.38156 -0.517541,0 -1.215913,-0.44485 -1.551938,-0.98855 z m 83.571871,-5.59478 c 0.048,-1.16495 0.28494,-1.4019 0.60416,-0.60417 0.28887,0.72187 0.25335,1.58437 -0.0789,1.91667 -0.3323,0.33229 -0.56864,-0.25834 -0.52522,-1.3125 z M 213,196.62244 c 0,-0.20765 0.7875,-0.99515 1.75,-1.75 1.58606,-1.24387 1.62143,-1.2085 0.37756,0.37756 C 213.82119,196.91575 213,197.44548 213,196.62244 Z M 89,194.11925 c 0,-0.97515 3.888176,-4.61334 4.306684,-4.02979 0.161932,0.2258 -0.740827,1.40696 -2.006131,2.62481 C 90.035249,193.93211 89,194.56436 89,194.11925 Z m 60.51128,-2.49613 C 150.45659,190.18041 151.4191,189 151.65019,189 c 0.72338,0 -1.6049,3.85397 -2.75929,4.56743 -0.6041,0.37335 -0.32492,-0.50159 0.62038,-1.94431 z M 295.232,191 c 0,-1.925 0.2058,-2.7125 0.45733,-1.75 0.25152,0.9625 0.25152,2.5375 0,3.5 -0.25153,0.9625 -0.45733,0.175 -0.45733,-1.75 z m 35.49022,0.9496 c 1.22222,-1.28617 2.41565,-2.13849 2.65206,-1.89404 0.23641,0.24444 -0.76359,1.29676 -2.22222,2.33849 l -2.65206,1.89405 2.22222,-2.3385 z M 450.5,192 c 0.99549,-1.1 2.03498,-2 2.30998,-2 0.275,0 -0.31449,0.9 -1.30998,2 -0.99549,1.1 -2.03498,2 -2.30998,2 -0.275,0 0.31449,-0.9 1.30998,-2 z m -35.30505,-1.5 c 0.0204,-1.65 0.2445,-2.20394 0.49804,-1.23097 0.25354,0.97297 0.23687,2.32297 -0.0371,3 -0.27393,0.67703 -0.48137,-0.11903 -0.46099,-1.76903 z m -153.38245,0.81689 c 0.72187,-0.28887 1.58438,-0.25335 1.91667,0.0789 0.33229,0.33229 -0.25834,0.56864 -1.3125,0.52522 -1.16495,-0.048 -1.4019,-0.28494 -0.60417,-0.60416 z M 277,190 c 0.5887,-1.1 1.29537,-2 1.57037,-2 0.275,0 0.0183,0.9 -0.57037,2 -0.5887,1.1 -1.29537,2 -1.57037,2 -0.275,0 -0.0183,-0.9 0.57037,-2 z m 98.8125,1.31689 c 0.72187,-0.28887 1.58438,-0.25335 1.91667,0.0789 0.33229,0.33229 -0.25834,0.56864 -1.3125,0.52522 -1.16495,-0.048 -1.4019,-0.28494 -0.60417,-0.60416 z m 120,0 c 0.72187,-0.28887 1.58438,-0.25335 1.91667,0.0789 0.33229,0.33229 -0.25834,0.56864 -1.3125,0.52522 -1.16495,-0.048 -1.4019,-0.28494 -0.60417,-0.60416 z m -365,-1 c 0.72187,-0.28887 1.58437,-0.25335 1.91667,0.0789 0.33229,0.33229 -0.25834,0.56864 -1.3125,0.52522 -1.16495,-0.048 -1.4019,-0.28494 -0.60417,-0.60416 z m 125,0 c 0.72187,-0.28887 1.58438,-0.25335 1.91667,0.0789 0.33229,0.33229 -0.25834,0.56864 -1.3125,0.52522 -1.16495,-0.048 -1.4019,-0.28494 -0.60417,-0.60416 z m 115,0 c 0.72187,-0.28887 1.58438,-0.25335 1.91667,0.0789 0.33229,0.33229 -0.25834,0.56864 -1.3125,0.52522 -1.16495,-0.048 -1.4019,-0.28494 -0.60417,-0.60416 z M 391.08029,189 C 392.5381,185.93897 393,185.37166 393,186.6422 c 0,0.53655 -0.69982,1.84905 -1.55517,2.91667 -1.46637,1.83031 -1.48719,1.7984 -0.36454,-0.55887 z m 99.73221,1.31689 c 0.72187,-0.28887 1.58438,-0.25335 1.91667,0.0789 0.33229,0.33229 -0.25834,0.56864 -1.3125,0.52522 -1.16495,-0.048 -1.4019,-0.28494 -0.60417,-0.60416 z M 511.08029,189 C 512.5381,185.93897 513,185.37166 513,186.6422 c 0,0.53655 -0.69982,1.84905 -1.55517,2.91667 -1.46637,1.83031 -1.48719,1.7984 -0.36454,-0.55887 z m -387.81126,0.30701 c 0.97297,-0.25354 2.32297,-0.23687 3,0.0371 0.67703,0.27393 -0.11903,0.48137 -1.76903,0.46099 -1.65,-0.0204 -2.20394,-0.2445 -1.23097,-0.49804 z m 102.54347,0.01 c 0.72187,-0.28887 1.58437,-0.25335 1.91667,0.0789 0.33229,0.33229 -0.25834,0.56864 -1.3125,0.52522 -1.16495,-0.048 -1.4019,-0.28494 -0.60417,-0.60416 z m 22.45653,-0.01 c 0.97297,-0.25354 2.32297,-0.23687 3,0.0371 0.67703,0.27393 -0.11903,0.48137 -1.76903,0.46099 -1.65,-0.0204 -2.20394,-0.2445 -1.23097,-0.49804 z m 115,0 c 0.97297,-0.25354 2.32297,-0.23687 3,0.0371 0.67703,0.27393 -0.11903,0.48137 -1.76903,0.46099 -1.65,-0.0204 -2.20394,-0.2445 -1.23097,-0.49804 z m 120,0 c 0.97297,-0.25354 2.32297,-0.23687 3,0.0371 0.67703,0.27393 -0.11903,0.48137 -1.76903,0.46099 -1.65,-0.0204 -2.20394,-0.2445 -1.23097,-0.49804 z M 105.25,188.27153 c 2.0625,-0.21574 5.4375,-0.21574 7.5,0 2.0625,0.21575 0.375,0.39226 -3.75,0.39226 -4.125,0 -5.8125,-0.17651 -3.75,-0.39226 z m 128.01375,0.0109 c 1.52006,-0.22986 3.77006,-0.22371 5,0.0136 1.22994,0.23736 -0.0137,0.42542 -2.76375,0.41792 -2.75,-0.008 -3.75631,-0.20172 -2.23625,-0.43157 z M 345.25,188.27153 c 2.0625,-0.21574 5.4375,-0.21574 7.5,0 2.0625,0.21575 0.375,0.39226 -3.75,0.39226 -4.125,0 -5.8125,-0.17651 -3.75,-0.39226 z m 120,0 c 2.0625,-0.21574 5.4375,-0.21574 7.5,0 2.0625,0.21575 0.375,0.39226 -3.75,0.39226 -4.125,0 -5.8125,-0.17651 -3.75,-0.39226 z M 152.03063,187.5 c 0,-0.55 0.43621,-1.675 0.96937,-2.5 0.53316,-0.825 0.96937,-1.05 0.96937,-0.5 0,0.55 -0.43621,1.675 -0.96937,2.5 -0.53316,0.825 -0.96937,1.05 -0.96937,0.5 z m 264.04832,-3.08333 c 0.048,-1.16495 0.28494,-1.4019 0.60416,-0.60417 0.28887,0.72187 0.25335,1.58437 -0.0789,1.91667 -0.33229,0.33229 -0.56864,-0.25834 -0.52522,-1.3125 z M 58,179.3578 c 0,-0.53655 0.699825,-1.84905 1.555166,-2.91667 1.466378,-1.83031 1.487191,-1.7984 0.364546,0.55887 C 58.4619,180.06103 58,180.62834 58,179.3578 Z m 97.07895,-0.94113 c 0.048,-1.16495 0.28494,-1.4019 0.60416,-0.60417 0.28887,0.72187 0.25335,1.58437 -0.0789,1.91667 -0.3323,0.33229 -0.56864,-0.25834 -0.52522,-1.3125 z m 240,0 c 0.048,-1.16495 0.28494,-1.4019 0.60416,-0.60417 0.28887,0.72187 0.25335,1.58437 -0.0789,1.91667 -0.33229,0.33229 -0.56864,-0.25834 -0.52522,-1.3125 z M 184,177.62244 c 0,-0.20765 0.7875,-0.99515 1.75,-1.75 1.58606,-1.24387 1.62143,-1.2085 0.37756,0.37756 C 184.82119,177.91575 184,178.44548 184,177.62244 Z M 282.19495,175.5 c 0.0204,-1.65 0.2445,-2.20394 0.49804,-1.23097 0.25354,0.97297 0.23687,2.32297 -0.0371,3 -0.27393,0.67703 -0.48137,-0.11903 -0.46099,-1.76903 z m 17.77524,-0.44431 c 0.57231,-1.06937 1.53482,-2.24977 2.13891,-2.62312 0.6041,-0.37335 0.32492,0.50159 -0.62038,1.94431 -2.00162,3.05486 -3.03812,3.51819 -1.51853,0.67881 z M 156.19495,172.5 c 0.0204,-1.65 0.2445,-2.20394 0.49804,-1.23097 0.25354,0.97297 0.23687,2.32297 -0.0371,3 -0.27393,0.67703 -0.48137,-0.11903 -0.46099,-1.76903 z M 396.232,172 c 0,-1.925 0.2058,-2.7125 0.45733,-1.75 0.25152,0.9625 0.25152,2.5375 0,3.5 -0.25153,0.9625 -0.45733,0.175 -0.45733,-1.75 z M 420,174.62244 c 0,-0.20765 0.7875,-0.99515 1.75,-1.75 1.58606,-1.24387 1.62143,-1.2085 0.37756,0.37756 C 420.82119,174.91575 420,175.44548 420,174.62244 Z M 516.232,171 c 0,-1.925 0.2058,-2.7125 0.45733,-1.75 0.25152,0.9625 0.25152,2.5375 0,3.5 -0.25153,0.9625 -0.45733,0.175 -0.45733,-1.75 z M 189.5,171 c 0.99549,-1.1 2.03498,-2 2.30998,-2 0.275,0 -0.31449,0.9 -1.30998,2 -0.99549,1.1 -2.03498,2 -2.30998,2 -0.275,0 0.31449,-0.9 1.30998,-2 z m 115,-2 c 0.99549,-1.1 2.03498,-2 2.30998,-2 0.275,0 -0.31449,0.9 -1.30998,2 -0.99549,1.1 -2.03498,2 -2.30998,2 -0.275,0 0.31449,-0.9 1.30998,-2 z m 120,0 c 0.99549,-1.1 2.03498,-2 2.30998,-2 0.275,0 -0.31449,0.9 -1.30998,2 -0.99549,1.1 -2.03498,2 -2.30998,2 -0.275,0 0.31449,-0.9 1.30998,-2 z M 68,166.62244 c 0,-0.20765 0.7875,-0.99515 1.75,-1.75 1.586056,-1.24387 1.621426,-1.2085 0.377555,0.37756 C 68.821186,166.91575 68,167.44548 68,166.62244 Z m 327.21057,-2.2233 C 394.50139,163.62961 394.36233,163 394.90156,163 c 1.03844,0 2.54172,1.90221 1.94858,2.46567 -0.19258,0.18294 -0.93038,-0.297 -1.63957,-1.06653 z m 120,0 C 514.50139,163.62961 514.36233,163 514.90156,163 c 1.03844,0 2.54172,1.90221 1.94858,2.46567 -0.19258,0.18294 -0.93038,-0.297 -1.63957,-1.06653 z M 155,164 c -0.90129,-0.58246 -1.02463,-0.97549 -0.30902,-0.98469 0.65504,-0.008 1.4691,0.43469 1.80902,0.98469 0.7673,1.24153 0.42112,1.24153 -1.5,0 z m 112.8125,-4.68311 c 0.72187,-0.28887 1.58438,-0.25335 1.91667,0.0789 0.33229,0.33229 -0.25834,0.56864 -1.3125,0.52522 -1.16495,-0.048 -1.4019,-0.28494 -0.60417,-0.60416 z m 113,0 c 0.72187,-0.28887 1.58438,-0.25335 1.91667,0.0789 0.33229,0.33229 -0.25834,0.56864 -1.3125,0.52522 -1.16495,-0.048 -1.4019,-0.28494 -0.60417,-0.60416 z m 120,0 c 0.72187,-0.28887 1.58438,-0.25335 1.91667,0.0789 0.33229,0.33229 -0.25834,0.56864 -1.3125,0.52522 -1.16495,-0.048 -1.4019,-0.28494 -0.60417,-0.60416 z m -416,-1 c 0.721875,-0.28887 1.584375,-0.25335 1.916667,0.0789 0.332291,0.33229 -0.258334,0.56864 -1.3125,0.52522 -1.164943,-0.048 -1.4019,-0.28494 -0.604167,-0.60416 z m 51,0 c 0.72187,-0.28887 1.58437,-0.25335 1.91667,0.0789 0.33229,0.33229 -0.25834,0.56864 -1.3125,0.52522 -1.16495,-0.048 -1.4019,-0.28494 -0.60417,-0.60416 z m 77,0 c 0.72187,-0.28887 1.58437,-0.25335 1.91667,0.0789 0.33229,0.33229 -0.25834,0.56864 -1.3125,0.52522 -1.16495,-0.048 -1.4019,-0.28494 -0.60417,-0.60416 z m 48.9375,0.0208 c 0.6875,-0.27741 1.8125,-0.27741 2.5,0 0.6875,0.27741 0.125,0.50439 -1.25,0.50439 -1.375,0 -1.9375,-0.22698 -1.25,-0.50439 z m 63.0625,-0.0208 c 0.72187,-0.28887 1.58438,-0.25335 1.91667,0.0789 0.33229,0.33229 -0.25834,0.56864 -1.3125,0.52522 -1.16495,-0.048 -1.4019,-0.28494 -0.60417,-0.60416 z m 51,0 c 0.72187,-0.28887 1.58438,-0.25335 1.91667,0.0789 0.33229,0.33229 -0.25834,0.56864 -1.3125,0.52522 -1.16495,-0.048 -1.4019,-0.28494 -0.60417,-0.60416 z m 69,0 c 0.72187,-0.28887 1.58438,-0.25335 1.91667,0.0789 0.33229,0.33229 -0.25834,0.56864 -1.3125,0.52522 -1.16495,-0.048 -1.4019,-0.28494 -0.60417,-0.60416 z m 51,0 c 0.72187,-0.28887 1.58438,-0.25335 1.91667,0.0789 0.33229,0.33229 -0.25834,0.56864 -1.3125,0.52522 -1.16495,-0.048 -1.4019,-0.28494 -0.60417,-0.60416 z m -406,-1 c 0.721875,-0.28887 1.584375,-0.25335 1.916667,0.0789 0.332291,0.33229 -0.258334,0.56864 -1.3125,0.52522 -1.164943,-0.048 -1.4019,-0.28494 -0.604167,-0.60416 z m 39.45653,-0.01 c 0.97297,-0.25354 2.32297,-0.23687 3,0.0371 0.67703,0.27393 -0.11903,0.48137 -1.76903,0.46099 -1.65,-0.0204 -2.20394,-0.2445 -1.23097,-0.49804 z m 87.48097,0.0307 c 0.6875,-0.27741 1.8125,-0.27741 2.5,0 0.6875,0.27741 0.125,0.50439 -1.25,0.50439 -1.375,0 -1.9375,-0.22698 -1.25,-0.50439 z m 38,0 c 0.6875,-0.27741 1.8125,-0.27741 2.5,0 0.6875,0.27741 0.125,0.50439 -1.25,0.50439 -1.375,0 -1.9375,-0.22698 -1.25,-0.50439 z m 75.0625,-0.0208 c 0.72187,-0.28887 1.58438,-0.25335 1.91667,0.0789 0.33229,0.33229 -0.25834,0.56864 -1.3125,0.52522 -1.16495,-0.048 -1.4019,-0.28494 -0.60417,-0.60416 z m 39.45653,-0.01 c 0.97297,-0.25354 2.32297,-0.23687 3,0.0371 0.67703,0.27393 -0.11903,0.48137 -1.76903,0.46099 -1.65,-0.0204 -2.20394,-0.2445 -1.23097,-0.49804 z m 80.54347,0.01 c 0.72187,-0.28887 1.58438,-0.25335 1.91667,0.0789 0.33229,0.33229 -0.25834,0.56864 -1.3125,0.52522 -1.16495,-0.048 -1.4019,-0.28494 -0.60417,-0.60416 z m 38.9375,0.0208 c 0.6875,-0.27741 1.8125,-0.27741 2.5,0 0.6875,0.27741 0.125,0.50439 -1.25,0.50439 -1.375,0 -1.9375,-0.22698 -1.25,-0.50439 z m -392.5,-1.02705 c 0.9625,-0.25152 2.5375,-0.25152 3.5,0 0.9625,0.25153 0.175,0.45733 -1.75,0.45733 -1.925,0 -2.7125,-0.2058 -1.75,-0.45733 z m 23.51166,-0.0179 c 1.24391,-0.23919 3.04391,-0.23011 4,0.0202 0.95609,0.25029 -0.0617,0.446 -2.26166,0.4349 -2.2,-0.0111 -2.98225,-0.21589 -1.73834,-0.45508 z m 103.48834,0.0179 c 0.9625,-0.25152 2.5375,-0.25152 3.5,0 0.9625,0.25153 0.175,0.45733 -1.75,0.45733 -1.925,0 -2.7125,-0.2058 -1.75,-0.45733 z m 21.51166,-0.0179 c 1.24391,-0.23919 3.04391,-0.23011 4,0.0202 0.95609,0.25029 -0.0617,0.446 -2.26166,0.4349 -2.2,-0.0111 -2.98225,-0.21589 -1.73834,-0.45508 z m 91.48834,0.0179 c 0.9625,-0.25152 2.5375,-0.25152 3.5,0 0.9625,0.25153 0.175,0.45733 -1.75,0.45733 -1.925,0 -2.7125,-0.2058 -1.75,-0.45733 z m 23.51166,-0.0179 c 1.24391,-0.23919 3.04391,-0.23011 4,0.0202 0.95609,0.25029 -0.0617,0.446 -2.26166,0.4349 -2.2,-0.0111 -2.98225,-0.21589 -1.73834,-0.45508 z m 96.48834,0.0179 c 0.9625,-0.25152 2.5375,-0.25152 3.5,0 0.9625,0.25153 0.175,0.45733 -1.75,0.45733 -1.925,0 -2.7125,-0.2058 -1.75,-0.45733 z m 23.51166,-0.0179 c 1.24391,-0.23919 3.04391,-0.23011 4,0.0202 0.95609,0.25029 -0.0617,0.446 -2.26166,0.4349 -2.2,-0.0111 -2.98225,-0.21589 -1.73834,-0.45508 z"
       style="fill:#d2d2d2" />
    <path
       id="path4761"
       d="m 93.608781,291.93754 c -11.981184,-1.39022 -21.430394,-3.96417 -29.642984,-8.0747 -4.378248,-2.19138 -8.442803,-4.88562 -9.032347,-5.98719 -1.219732,-2.27909 0.104306,-10.1142 2.488201,-14.72414 C 59.411724,259.30313 66.687988,252 68.532133,252 c 0.843895,0 3.743535,1.11948 6.443646,2.48773 13.691255,6.93788 37.844151,10.60948 44.953141,6.83354 4.78024,-2.53903 7.49564,-6.49355 6.68276,-9.73232 C 125.66405,247.81328 120.31467,244.82212 104,238.94539 76.645561,229.09202 63.616559,220.68495 58.366478,209.5 c -1.93989,-4.13281 -2.336444,-6.56095 -2.286424,-14 0.03328,-4.95 0.378402,-9.80496 0.766929,-10.78881 0.388527,-0.98384 0.533913,2.87119 0.32308,8.56674 -0.334338,9.03194 -0.09723,11.02062 1.855097,15.55892 4.296185,9.98675 16.883114,18.69323 38.47484,26.61337 21.42857,7.86029 23.8376,8.9073 27.11469,11.78462 3.85471,3.38448 4.20952,5.90122 1.46623,10.40012 -5.45569,8.94713 -25.14255,8.43715 -49.441724,-1.28077 l -8.860805,-3.54369 -3.861968,3.77111 c -4.313371,4.2119 -7.328005,9.98939 -8.22422,15.76159 -0.498675,3.21179 -0.190832,4.24908 1.873746,6.31366 11.284547,11.28454 55.267911,16.84444 78.139921,9.87759 13.69946,-4.17288 21.65305,-15.9819 22.97722,-34.11519 0.82833,-11.3433 -1.19721,-17.10634 -8.59321,-24.44927 -8.30592,-8.24633 -15.30228,-11.76952 -43.48251,-21.89672 -7.640944,-2.74594 -14.953444,-5.98921 -16.249998,-7.20726 -5.281251,-4.96148 -1.235836,-11.82834 7.330363,-12.44288 L 102.5,188.0779 97.655387,188.96959 C 91.811801,190.04514 89,192.35728 89,196.08689 c 0,4.01456 3.170825,5.83992 21.5,12.37697 8.8,3.1385 19.76747,7.54269 24.37214,9.78711 9.48647,4.62389 19.14592,12.90394 22.32634,19.13809 4.11216,8.06049 3.27974,24.79537 -1.75266,35.23548 -3.33494,6.91862 -10.63913,13.55579 -17.91316,16.27736 -10.15616,3.7999 -27.19104,4.97721 -43.923879,3.03564 z m 126.779279,0.0114 c -17.49721,-2.283 -29.89276,-9.42212 -36.78782,-21.18765 -5.41528,-9.24047 -6.60175,-17.46884 -6.58546,-45.67122 0.0161,-27.83205 0.78818,-33.82087 5.57923,-43.27557 4.99922,-9.86548 18.57091,-20.34092 28.90599,-22.31138 1.65,-0.31458 0.0901,0.54716 -3.4665,1.91497 -13.33299,5.12772 -23.61588,15.46963 -27.6863,27.8452 -2.22189,6.75541 -3.17984,53.87162 -1.31953,64.90079 2.26452,13.42561 10.45008,25.4679 20.95384,30.82652 9.43479,4.81327 18.29195,6.32134 37.01849,6.30298 21.6052,-0.0212 43.86654,-3.34964 44.07878,-6.59055 0.5363,-8.1894 -0.41447,-14.71574 -2.87038,-19.703 -3.16935,-6.43605 -1.94268,-6.25572 -20.7084,-3.04433 -16.59877,2.84056 -30.84502,2.56034 -37.15327,-0.73079 -5.90442,-3.08044 -10.06633,-8.55724 -11.40575,-15.0092 -0.68374,-3.29353 -0.98906,-12.88853 -0.78155,-24.56042 0.30397,-17.09662 0.55968,-19.53141 2.37939,-22.65526 2.13257,-3.66096 10.54482,-10 13.27054,-10 0.87083,0 -0.78524,1.18031 -3.68016,2.62291 -3.43118,1.70983 -6.19745,4.03456 -7.94635,6.678 l -2.68285,4.05508 0,22.65124 0,22.65124 3.00892,4.86601 c 2.1447,3.46837 4.43999,5.59979 7.99132,7.42076 4.62296,2.37045 5.92088,2.54881 17.99108,2.47228 9.07069,-0.0575 16.45471,-0.7555 24.39221,-2.30575 6.26094,-1.22279 11.97811,-1.9951 12.70482,-1.71624 2.53406,0.97241 5.50246,8.7492 6.60771,17.31131 1.05958,8.20824 1.01381,8.7048 -0.94884,10.29406 -6.03403,4.88606 -42.03315,8.4044 -60.85916,5.94801 z M 336.5,292.30041 c -19.6842,-1.78824 -40.54664,-9.65374 -42.1082,-15.87551 -1.49492,-5.95621 7.08674,-22.17246 12.67176,-23.94507 1.42245,-0.45147 4.43006,0.37348 8.93937,2.45195 11.20877,5.16646 25.06393,8.2822 34.7701,7.81907 8.96876,-0.42793 12.34553,-2.002 15.22697,-7.09801 1.33333,-2.35808 1.33333,-2.9505 0,-5.33178 -1.86044,-3.32267 -6.89238,-5.86309 -23.50479,-11.86661 -16.3818,-5.92017 -25.89818,-10.40536 -32.32783,-15.2365 -8.4871,-6.37709 -14.31357,-15.12156 -14.05238,-21.09007 0.096,-2.19267 0.2325,-2.04824 0.82447,0.87212 2.69462,13.29314 15.96945,23.73655 41.95447,33.00593 17.35759,6.1918 23.35306,8.85653 26.31819,11.6973 3.27409,3.13678 3.49214,5.62953 0.86879,9.93173 -5.45526,8.94643 -25.14272,8.43708 -49.43736,-1.27903 l -8.85644,-3.54194 -3.45953,3.34301 c -4.82742,4.66481 -7.08999,8.63666 -8.40027,14.74631 -1.04193,4.85834 -0.96246,5.43038 1.05238,7.57508 5.21039,5.5462 22.44796,10.86684 41.12809,12.6948 20.0179,1.95888 38.88885,-1.11957 47.60194,-7.76536 7.20189,-5.49315 11.82605,-15.83481 12.94731,-28.95589 1.74725,-20.44651 -9.99227,-31.51959 -47.15704,-44.47998 -21.08288,-7.3522 -23.5,-8.77871 -23.5,-13.86907 0,-5.89135 8.34571,-9.28944 22,-8.95766 4.4688,0.10858 3.83298,0.28131 -3.39122,0.92124 -10.74453,0.95177 -13.57177,1.60541 -15.85878,3.66643 -2.30028,2.07298 -2.23144,6.52142 0.13404,8.66216 1.03623,0.93777 8.12373,3.9495 15.75,6.69273 29.32942,10.55003 37.12859,14.58959 45.18304,23.40245 7.7533,8.48334 9.68902,16.96817 7.08965,31.0761 -2.38679,12.95422 -10.39785,23.22883 -21.2884,27.3035 -9.2662,3.46693 -25.66121,4.83479 -41.11833,3.43057 z M 453,291.87532 c -15.45537,-1.78294 -30.51681,-6.91787 -36.46776,-12.43302 -2.50098,-2.31784 -2.68191,-2.95857 -2.04143,-7.22959 0.84116,-5.60926 2.60902,-9.29363 7.14957,-14.90035 4.70809,-5.8136 6.33094,-6.08259 14.36255,-2.38058 11.20877,5.16646 25.06393,8.2822 34.7701,7.81907 9.08828,-0.43364 12.5872,-2.10451 15.08585,-7.20411 2.89218,-5.90275 -1.56386,-9.2766 -21.85013,-16.54361 -22.46846,-8.04872 -32.38653,-13.26839 -39.87624,-20.98602 -4.3496,-4.48197 -8.1878,-11.77404 -8.03015,-15.25621 0.0818,-1.80678 0.24971,-1.65833 0.83595,0.7391 3.33454,13.63656 16.34045,23.40845 44.56169,33.48108 16.98147,6.06097 21.83723,8.36088 24.32233,11.52017 2.67099,3.39562 2.7192,5.0984 0.25859,9.13371 -5.58188,9.15408 -26.07426,8.40686 -50.90515,-1.85617 l -7.32423,-3.02723 -3.49174,3.37422 c -4.8568,4.69334 -7.11978,8.65663 -8.42931,14.76271 -1.41659,6.60537 -0.29576,8.08457 9.62893,12.7076 17.78478,8.28436 52.72318,10.70988 69.94058,4.85548 14.22877,-4.83819 21.58845,-15.64382 23.15704,-33.99963 1.74725,-20.44651 -9.99227,-31.51959 -47.15704,-44.47998 -21.08288,-7.3522 -23.5,-8.77871 -23.5,-13.86907 0,-5.89135 8.34571,-9.28944 22,-8.95766 4.4688,0.10858 3.83298,0.28131 -3.39122,0.92124 -10.74453,0.95177 -13.57177,1.60541 -15.85878,3.66643 -2.30028,2.07298 -2.23144,6.52142 0.13404,8.66216 1.03623,0.93777 8.12373,3.9495 15.75,6.69273 29.41438,10.58059 37.12219,14.58259 45.28253,23.5113 8.65454,9.46944 10.28783,22.22475 4.91615,38.393 -2.81549,8.47438 -10.6716,16.68148 -18.9234,19.76888 -10.52783,3.93897 -27.5366,5.11848 -44.90932,3.11435 z M 415.25218,196.5 c 0.0111,-2.2 0.21589,-2.98225 0.45508,-1.73834 0.23919,1.24391 0.23011,3.04391 -0.0202,4 -0.25029,0.95609 -0.446,-0.0617 -0.4349,-2.26166 z m -120.05723,0 c 0.0204,-1.65 0.2445,-2.20394 0.49804,-1.23097 0.25354,0.97297 0.23687,2.32297 -0.0371,3 -0.27393,0.67703 -0.48137,-0.11903 -0.46099,-1.76903 z m -150.42577,-3.06415 c -0.31028,-0.31029 -4.54778,-1.40362 -9.41667,-2.42964 -4.86888,-1.02602 -7.68699,-1.89715 -6.26247,-1.93585 1.42452,-0.0387 6.14952,0.84479 10.5,1.96331 l 7.90996,2.03366 1.5,-2.176 c 0.825,-1.1968 2.48928,-4.69945 3.6984,-7.78367 1.20913,-3.08421 2.22163,-5.05427 2.25,-4.3779 0.0789,1.88034 -3.04825,9.43557 -5.18218,12.52024 -1.79781,2.5988 -3.73619,3.4467 -4.99704,2.18585 z M 269,192.80871 c -1.925,-0.55601 -6.65,-1.62451 -10.5,-2.37445 -6.74701,-1.31425 -6.79702,-1.34474 -1.38364,-0.84364 3.089,0.28595 8.01412,1.15241 10.94471,1.92549 3.61744,0.95426 5.71789,1.0823 6.54152,0.39874 1.62534,-1.3489 4.48218,-7.38755 6.10993,-12.91485 1.26294,-4.2885 1.30402,-4.32517 0.87411,-0.78014 -0.48497,3.99907 -4.99423,13.78241 -6.91589,15.0048 -1.36764,0.86996 -1.16792,0.88461 -5.67074,-0.41595 z m 115.80375,0.66171 c -0.3293,-0.3293 -4.58235,-1.43819 -9.45124,-2.46421 -4.86888,-1.02602 -7.68699,-1.89715 -6.26247,-1.93585 1.42452,-0.0387 6.109,0.82964 10.40996,1.92964 4.30096,1.1 7.99658,2 8.2125,2 1.06658,0 6.35882,-13.17746 7.22904,-18 l 0.99246,-5.5 -0.44941,5.49932 c -0.7383,9.0343 -7.8386,21.31333 -10.68084,18.4711 z m 120,0 c -0.3293,-0.3293 -4.58235,-1.43819 -9.45124,-2.46421 -4.86888,-1.02602 -7.68699,-1.89715 -6.26247,-1.93585 1.42452,-0.0387 6.109,0.82964 10.40996,1.92964 4.30096,1.1 7.99658,2 8.2125,2 1.17198,0 6.45266,-13.50951 7.2627,-18.58007 l 0.94572,-5.91993 -0.40619,5.92425 c -0.64348,9.3851 -7.74471,22.01243 -10.71098,19.04617 z m -208.30357,-5.67835 c 0.55709,-5.82798 3.52689,-12.29542 8.09839,-17.6362 3.52048,-4.11288 13.19338,-9.5645 18.90143,-10.65278 1.65,-0.31458 0.17375,0.51686 -3.28055,1.84765 -13.64777,5.25785 -20.25892,12.84939 -23.20772,26.64926 l -0.96158,4.5 0.45003,-4.70793 z m 119.98733,-0.13269 c 1.07509,-10.42757 7.82948,-19.75231 17.80446,-24.57985 3.41442,-1.65246 7.55803,-3.26185 9.20803,-3.57644 1.65,-0.31458 0.17375,0.51686 -3.28055,1.84765 -12.86378,4.95582 -19.98318,12.69317 -22.7531,24.728 -1.33202,5.78736 -1.42865,5.9434 -0.97884,1.58064 z M 118.25,188.28375 c 1.5125,-0.22913 3.9875,-0.22913 5.5,0 1.5125,0.22912 0.275,0.41659 -2.75,0.41659 -3.025,0 -4.2625,-0.18747 -2.75,-0.41659 z m 109.01903,0.0233 c 0.97297,-0.25354 2.32297,-0.23687 3,0.0371 0.67703,0.27393 -0.11903,0.48137 -1.76903,0.46099 -1.65,-0.0204 -2.20394,-0.2445 -1.23097,-0.49804 z M 236,187.95311 c -2.69176,-0.44654 -0.6826,-0.53619 5,-0.22309 5.225,0.28788 9.6875,0.69139 9.91667,0.8967 0.68661,0.61512 -10.07852,0.12899 -14.91667,-0.67361 z m 122.25,0.33064 c 1.5125,-0.22913 3.9875,-0.22913 5.5,0 1.5125,0.22912 0.275,0.41659 -2.75,0.41659 -3.025,0 -4.2625,-0.18747 -2.75,-0.41659 z m 120,0 c 1.5125,-0.22913 3.9875,-0.22913 5.5,0 1.5125,0.22912 0.275,0.41659 -2.75,0.41659 -3.025,0 -4.2625,-0.18747 -2.75,-0.41659 z m -372.5,-1.00715 c 1.7875,-0.22182 4.7125,-0.22182 6.5,0 1.7875,0.22183 0.325,0.40333 -3.25,0.40333 -3.575,0 -5.0375,-0.1815 -3.25,-0.40333 z M 58.055945,181.5 c -0.08857,-2.38242 6.186891,-11.52427 9.964952,-14.51655 4.175422,-3.307 14.229591,-7.97707 16.979103,-7.88665 0.825,0.0271 -0.773073,0.85865 -3.551273,1.84782 -10.585688,3.769 -16.633678,8.64602 -20.912626,16.86368 -1.343638,2.58043 -2.459708,4.2417 -2.480156,3.6917 z m 97.139005,-7 c 0.0204,-1.65 0.2445,-2.20394 0.49804,-1.23097 0.25354,0.97297 0.23687,2.32297 -0.0371,3 -0.27393,0.67703 -0.48137,-0.11903 -0.46099,-1.76903 z m 126.95488,-5.21482 c -0.18042,-5.07528 -1.04593,-5.65548 -12.45457,-8.349 -4.50739,-1.06417 -6.17026,-1.69417 -3.69526,-1.39999 2.475,0.29417 7.09429,1.25507 10.26508,2.13534 6.20385,1.72229 7.31286,3.2594 6.46283,8.95764 -0.32548,2.18196 -0.4642,1.85946 -0.57808,-1.34399 z M 155.81955,167.75 c -0.19842,-1.39714 -1.64623,-2.91275 -3.81955,-3.99845 -1.925,-0.96164 -2.91515,-1.74914 -2.20034,-1.75 3.16143,-0.004 7.20034,3.09489 7.20034,5.52413 0,3.09076 -0.75303,3.23386 -1.18045,0.22432 z M 396,167.62244 c 0,-2.15955 -2.33355,-3.58514 -9.17001,-5.60207 -3.4815,-1.02713 -5.72425,-1.9019 -4.9839,-1.94394 2.54893,-0.14473 12.15516,3.06768 13.65325,4.56576 1.41432,1.41432 2.09021,4.35781 1.00066,4.35781 -0.275,0 -0.5,-0.6199 -0.5,-1.37756 z m 119,-1.68752 c -0.825,-1.09475 -4.425,-2.84356 -8,-3.88625 -3.575,-1.04269 -5.89426,-1.9302 -5.15391,-1.97224 0.74035,-0.042 3.77756,0.63041 6.74934,1.49434 5.24033,1.5234 8.40457,3.59435 8.40457,5.50066 0,1.29886 -0.28808,1.13515 -2,-1.13651 z M 140.5,160.4772 c -2.83404,-0.72847 -3.91702,-1.2935 -2.5,-1.30435 1.375,-0.0105 4.3,0.57409 6.5,1.29915 5.10546,1.68262 2.53887,1.68596 -4,0.005 z m 236.25,-1.13948 c 0.6875,-0.27741 1.8125,-0.27741 2.5,0 0.6875,0.27741 0.125,0.50439 -1.25,0.50439 -1.375,0 -1.9375,-0.22698 -1.25,-0.50439 z m 120,0 c 0.6875,-0.27741 1.8125,-0.27741 2.5,0 0.6875,0.27741 0.125,0.50439 -1.25,0.50439 -1.375,0 -1.9375,-0.22698 -1.25,-0.50439 z m -409,-1 c 0.6875,-0.27741 1.8125,-0.27741 2.5,0 0.6875,0.27741 0.125,0.50439 -1.25,0.50439 -1.375,0 -1.9375,-0.22698 -1.25,-0.50439 z m 42.5,-0.0271 c 0.9625,-0.25152 2.5375,-0.25152 3.5,0 0.9625,0.25153 0.175,0.45733 -1.75,0.45733 -1.925,0 -2.7125,-0.2058 -1.75,-0.45733 z m 85.5,0.0271 c 0.6875,-0.27741 1.8125,-0.27741 2.5,0 0.6875,0.27741 0.125,0.50439 -1.25,0.50439 -1.375,0 -1.9375,-0.22698 -1.25,-0.50439 z m 40.5,-0.0271 c 0.9625,-0.25152 2.5375,-0.25152 3.5,0 0.9625,0.25153 0.175,0.45733 -1.75,0.45733 -1.925,0 -2.7125,-0.2058 -1.75,-0.45733 z m 71.5,0.0271 c 0.6875,-0.27741 1.8125,-0.27741 2.5,0 0.6875,0.27741 0.125,0.50439 -1.25,0.50439 -1.375,0 -1.9375,-0.22698 -1.25,-0.50439 z m 42.5,-0.0271 c 0.9625,-0.25152 2.5375,-0.25152 3.5,0 0.9625,0.25153 0.175,0.45733 -1.75,0.45733 -1.925,0 -2.7125,-0.2058 -1.75,-0.45733 z m 77.5,0.0271 c 0.6875,-0.27741 1.8125,-0.27741 2.5,0 0.6875,0.27741 0.125,0.50439 -1.25,0.50439 -1.375,0 -1.9375,-0.22698 -1.25,-0.50439 z m 42.5,-0.0271 c 0.9625,-0.25152 2.5375,-0.25152 3.5,0 0.9625,0.25153 0.175,0.45733 -1.75,0.45733 -1.925,0 -2.7125,-0.2058 -1.75,-0.45733 z m -396.5,-1.0164 c 1.2375,-0.23836 3.2625,-0.23836 4.5,0 1.2375,0.23835 0.225,0.43337 -2.25,0.43337 -2.475,0 -3.4875,-0.19502 -2.25,-0.43337 z m 27.51375,-0.0119 c 1.52006,-0.22986 3.77006,-0.22371 5,0.0136 1.22994,0.23736 -0.0138,0.42542 -2.76375,0.41792 -2.75,-0.008 -3.75631,-0.20172 -2.23625,-0.43157 z m 100.49791,0.0103 c 1.24391,-0.23919 3.04391,-0.23011 4,0.0202 0.95609,0.25029 -0.0617,0.446 -2.26166,0.4349 -2.2,-0.0111 -2.98225,-0.21589 -1.73834,-0.45508 z m 24.48834,-0.009 c 1.5125,-0.22913 3.9875,-0.22913 5.5,0 1.5125,0.22912 0.275,0.41659 -2.75,0.41659 -3.025,0 -4.2625,-0.18747 -2.75,-0.41659 z m 87.5,0.0105 c 1.2375,-0.23836 3.2625,-0.23836 4.5,0 1.2375,0.23835 0.225,0.43337 -2.25,0.43337 -2.475,0 -3.4875,-0.19502 -2.25,-0.43337 z M 349.5,157 l -9,-0.62206 8,-0.0804 c 4.4,-0.0442 10.7,0.25457 14,0.66401 l 6,0.74445 -5,-0.042 c -2.75,-0.0231 -9.05,-0.32188 -14,-0.66401 z m 104.25,0.29427 c 1.2375,-0.23836 3.2625,-0.23836 4.5,0 1.2375,0.23835 0.225,0.43337 -2.25,0.43337 -2.475,0 -3.4875,-0.19502 -2.25,-0.43337 z M 469.5,157 l -9,-0.62206 8,-0.0804 c 4.4,-0.0442 10.7,0.25457 14,0.66401 l 6,0.74445 -5,-0.042 c -2.75,-0.0231 -9.05,-0.32188 -14,-0.66401 z m -364.21983,-0.73627 c 2.6291,-0.20668 6.6791,-0.20418 9,0.006 2.32091,0.20972 0.16983,0.37882 -4.78017,0.37577 -4.95,-0.003 -6.84892,-0.17464 -4.21983,-0.38131 z m 126.49626,0.003 c 2.35204,-0.21124 5.95204,-0.20827 8,0.007 2.04796,0.21487 0.12357,0.38771 -4.27643,0.38408 -4.4,-0.004 -6.07561,-0.17944 -3.72357,-0.39069 z"
       style="fill:#a1ded1" />
    <path
       id="path4759"
       d="m 257,670.90422 c -79.25048,-2.91487 -142.26668,-8.7915 -198,-18.46467 -22.899673,-3.97451 -29.45282,-6.2745 -35.903743,-12.6013 -3.4634,-3.39676 -7.085749,-8.619 -7.092519,-10.22509 -0.0021,-0.48776 2.261009,1.23156 5.029034,3.82073 6.578797,6.15369 11.473847,8.20541 26.43116,11.07841 58.614758,11.25871 129.225208,17.96069 217.196558,20.61516 48.79794,1.47245 78.9182,0.24654 93.33951,-3.79896 29.78387,-8.35505 73.47855,-39.64859 119.04907,-85.26132 32.67233,-32.7026 52.87775,-57.6955 71.08051,-87.92238 C 551.90831,481.86996 555,477.04383 555,477.42005 c 0,1.08807 -7.6769,16.17777 -11.97138,23.53095 -21.43059,36.69423 -77.33712,96.31158 -122.52862,130.6615 -24.46635,18.59679 -47.5465,31.48756 -64.4542,35.99909 -13.54866,3.61523 -53.84949,4.95497 -99.0458,3.29263 z m 64.62471,-87.80588 C 321.2855,575.06925 320.92578,548.7 320.82534,524.5 c -0.17952,-43.25395 -0.14417,-44.11869 2.08446,-51 6.00592,-18.54431 19.30866,-34.02399 36.5902,-42.57806 13.84175,-6.85143 15.26196,-6.97118 79.22567,-6.68021 L 495.5,424.5 l -0.26991,4.2657 c -0.66301,10.47825 -8.9816,24.25893 -18.33606,30.37573 -11.46509,7.49692 -9.91716,7.27569 -54.89403,7.84549 -44.92882,0.56919 -43.236,0.31575 -50.47738,7.55712 -7.60192,7.60193 -7.59712,7.57462 -8.14154,46.29508 -0.26804,19.06348 -0.93747,37.53578 -1.48763,41.04954 -2.71783,17.35835 -17.06357,31.50137 -35.52272,35.02074 l -4.12927,0.78728 -0.61675,-14.59834 z M 333,592.11406 l 4.5,-2.07014 -6.63342,-0.022 c -6.2723,-0.0208 -6.6592,0.11286 -7.10684,2.45454 -0.77767,4.06813 -0.35475,4.05154 9.24026,-0.36244 z"
       style="fill:#a7a7a7" />
    <path
       id="path4757"
       d="m 94.604825,290.90145 c -15.555893,-1.64032 -31.807024,-7.01274 -37.038876,-12.24459 -2.064578,-2.06458 -2.372421,-3.10187 -1.873746,-6.31366 0.896215,-5.7722 3.910849,-11.54969 8.22422,-15.76159 l 3.861968,-3.77111 8.860805,3.54369 c 12.356648,4.94177 19.471257,6.71085 29.604314,7.36126 10.7191,0.68803 16.85746,-1.19348 19.83741,-6.08049 2.74329,-4.4989 2.38848,-7.01564 -1.46623,-10.40012 C 121.3376,244.35752 118.92857,243.31051 97.5,235.45022 76.370763,227.69973 63.863568,219.19716 59.357332,209.52028 58.071545,206.75912 57.06807,202.925 57.127388,201 c 0.0965,-3.13178 0.192372,-2.99739 0.911248,1.27737 1.679244,9.98555 9.279959,18.34133 22.914978,25.19138 3.600512,1.80885 13.479327,5.81689 21.952926,8.90675 C 124.67158,244.31203 129,247.12904 129,253.35753 c 0,3.20779 -4.49182,8.53219 -8.67119,10.27844 -8.22207,3.4354 -29.83784,0.23393 -45.078426,-6.67648 -6.627272,-3.00495 -6.700446,-3.01406 -9.21535,-1.14798 -3.731836,2.76905 -7.879696,10.00492 -8.912258,15.54727 -1.08839,5.84201 -0.196622,7.04182 8.178927,11.00408 17.833063,8.43639 54.381717,10.84314 70.886477,4.66792 14.4959,-5.42361 21.16777,-16.57112 21.26545,-35.53078 0.036,-6.99473 -0.39182,-9.89123 -1.9203,-13 -5.09966,-10.37216 -18.17187,-18.47846 -44.97187,-27.88782 C 90.962902,203.73122 87,201.35524 87,196.48581 c 0,-3.71626 2.418307,-6.94332 6.289934,-8.39348 7.627236,-2.85688 31.587196,-1.83223 46.531646,1.98992 4.12409,1.05476 7.58991,1.91775 7.70182,1.91775 1.00495,0 5.86921,-13.51547 6.72671,-18.69035 1.34268,-8.1028 1.07741,-8.37022 -11.1138,-11.20353 -24.78135,-5.75933 -51.194883,-5.03962 -66.696125,1.81731 -9.541821,4.22081 -16.662571,13.82562 -18.442863,24.87664 l -0.918246,5.69993 0.374038,-5.61269 c 0.699868,-10.502 8.026785,-20.84705 18.046886,-25.48082 11.853548,-5.48164 29.28441,-7.47301 48,-5.48371 12.84336,1.36514 26.94648,4.48452 30.34615,6.71207 2.16821,1.42067 2.32695,2.03166 1.74429,6.71402 -0.76449,6.14359 -4.20393,16.48726 -6.49008,19.51807 l -1.63669,2.16982 -7.68456,-1.96538 c -4.2265,-1.08095 -13.21833,-2.48196 -19.98183,-3.11334 C 98.9645,186.01327 88,188.78634 88,196 c 0,4.27567 3.836736,6.76511 18.60737,12.07327 28.18023,10.1272 35.17659,13.65039 43.48251,21.89672 7.396,7.34293 9.42154,13.10597 8.59321,24.44927 -1.00084,13.70563 -5.28823,23.00828 -13.48556,29.26059 -9.13591,6.96819 -27.77064,9.62811 -50.592705,7.2216 z m 126.588035,0.0962 c -24.34765,-3.43175 -37.39996,-14.33142 -41.75261,-34.8666 -2.04083,-9.62838 -1.96931,-54.26117 0.10103,-63.04444 4.05484,-17.20233 16.06154,-28.63855 35.45872,-33.77394 4.66156,-1.23414 10.45972,-1.72275 20.5,-1.7275 12.70437,-0.006 32.29894,1.9492 31.1408,3.10734 -0.25861,0.25861 -3.99609,-0.0968 -8.3055,-0.78977 -12.02447,-1.93362 -35.4413,-1.70245 -43.3353,0.42781 -14.20075,3.83218 -24.21241,10.87217 -30.10528,21.16943 -5.27847,9.22365 -6.11365,16.1434 -5.63375,46.6774 0.33468,21.29424 0.77525,28.34161 1.99683,31.94112 5.32549,15.69215 13.93381,23.33867 31.58809,28.05878 13.4986,3.60903 47.2564,2.42361 63.52529,-2.23073 l 3.87118,-1.1075 -0.44852,-8.16953 c -0.31673,-5.76901 -1.09291,-9.41836 -2.6415,-12.41954 -1.20615,-2.3375 -2.29634,-4.2485 -2.42266,-4.24667 -0.12633,0.002 -4.72968,0.91316 -10.22968,2.02519 -5.5,1.11203 -16.17809,2.30194 -23.7291,2.64424 l -13.7291,0.62237 -6.38038,-3.14105 c -12.08969,-5.95173 -14.021,-11.74346 -13.48645,-40.44393 0.38811,-20.83781 0.78853,-22.55698 6.48575,-27.84599 6.941,-6.44366 16.29124,-8.44196 32.05405,-6.85045 9.9855,1.0082 23.42042,3.33347 26.83854,4.64512 1.03015,0.3953 2.36878,-1.40473 4.61616,-6.20727 2.59186,-5.53869 3.18024,-8.07533 3.2479,-14.00248 0.0455,-3.98115 0.48006,-6.99724 0.96582,-6.70243 1.33977,0.81312 -9.2e-4,13.24327 -1.97312,18.29379 -2.37817,6.09012 -5.36456,10.191 -6.97217,9.5741 -3.30636,-1.26877 -16.87197,-3.60619 -26.67064,-4.59549 -13.68347,-1.38151 -21.89278,-0.13194 -28.53347,4.34319 -8.12902,5.4781 -8.68272,7.26552 -9.07436,29.29302 -0.20751,11.67189 0.0978,21.26689 0.78155,24.56042 1.33942,6.45196 5.50133,11.92876 11.40575,15.0092 6.30825,3.29113 20.5545,3.57135 37.15327,0.73079 18.76572,-3.21139 17.53905,-3.39172 20.7084,3.04433 2.45699,4.98947 3.40458,11.49673 2.87038,19.71146 -0.26822,4.12458 -43.22822,8.63408 -59.88592,6.28621 z M 334,290.87532 c -15.35513,-1.77138 -32.40044,-7.47931 -37.0203,-12.39693 -2.01484,-2.1447 -2.09431,-2.71674 -1.05238,-7.57508 1.31028,-6.10965 3.57285,-10.0815 8.40027,-14.74631 l 3.45953,-3.34301 8.85644,3.54194 c 12.35224,4.94001 19.4678,6.70917 29.59995,7.35952 10.7191,0.68803 16.85746,-1.19348 19.83741,-6.08049 5.1071,-8.37546 1.1567,-11.51827 -27.18698,-21.62903 -13.99351,-4.99176 -25.71516,-11.14058 -31.98672,-16.77926 -5.23462,-4.70637 -9.93058,-12.52623 -9.87457,-16.44343 0.0194,-1.35845 0.75594,-0.19021 1.81842,2.88431 4.53072,13.11068 13.96986,19.68921 44.14893,30.76925 16.83612,6.18127 23.35036,9.48081 25.07314,12.69987 2.68598,5.0188 -2.13953,12.8748 -9.14181,14.88303 -9.44287,2.70817 -27.42519,-0.10303 -42.7427,-6.68203 l -8.329,-3.57737 -2.81049,2.69263 c -3.67038,3.51644 -7.64286,11.05492 -8.37301,15.88923 -0.48863,3.23523 -0.18426,4.20919 1.92685,6.1657 3.58528,3.32272 13.62425,7.08446 25.57211,9.5822 13.50404,2.82307 37.02406,3.05895 46.76493,0.46901 15.93296,-4.23633 23.23388,-12.32724 26.11739,-28.94337 4.11248,-23.6981 -6.38171,-34.89149 -45.55741,-48.59276 -15.78364,-5.52015 -19.88531,-7.28676 -22.75,-9.79852 -1.96859,-1.72605 -2.29758,-6.33274 -0.66951,-9.37482 1.36496,-2.55046 6.86025,-4.88526 11.13739,-4.73198 2.68216,0.0961 2.39286,0.26676 -1.58267,0.93352 -5.80497,0.97359 -9.63521,4.17436 -9.63521,8.05175 0,5.09036 2.41712,6.51687 23.5,13.86907 37.16477,12.96039 48.90429,24.03347 47.15704,44.47998 -1.12126,13.12108 -5.74542,23.46274 -12.94731,28.95589 -9.34844,7.1304 -29.45804,10.03447 -51.70973,7.46749 z m 120.60878,0.0622 c -16.28538,-1.88965 -33.47533,-7.65017 -37.95546,-12.71924 -1.63785,-1.85316 -1.71959,-2.68206 -0.72283,-7.32981 1.30953,-6.10608 3.57251,-10.06937 8.42931,-14.76271 l 3.49174,-3.37422 7.32423,3.02723 c 12.38281,5.11802 20.9288,7.33853 30.54917,7.93761 11.2395,0.69991 17.33053,-1.11982 20.35598,-6.08144 2.46061,-4.03531 2.4124,-5.73809 -0.25859,-9.13371 -2.4851,-3.15929 -7.34086,-5.4592 -24.32233,-11.52017 -31.77198,-11.33995 -43.95036,-21.83551 -44.99938,-38.78135 l -0.41475,-6.69973 0.96717,6.88324 c 1.19226,8.48517 4.86482,15.49263 10.91326,20.82314 5.63664,4.9676 20.50657,12.20277 37.50124,18.24677 14.23931,5.06407 20.90742,8.51043 22.6056,11.68352 2.66248,4.97489 -1.82337,12.33798 -8.97236,14.72727 -8.87309,2.9655 -27.35851,0.15416 -42.91215,-6.52627 l -8.329,-3.57737 -2.81049,2.69263 c -3.67038,3.51644 -7.64286,11.05492 -8.37301,15.88923 -0.7359,4.87237 1.7538,7.41629 10.80402,11.03934 11.49223,4.60066 25.3294,6.86573 42.01985,6.87844 21.43599,0.0163 31.27791,-2.84419 38.93089,-11.31512 4.80653,-5.32026 7.04931,-10.50845 8.58747,-19.86528 1.5582,-9.47873 0.78028,-15.8402 -2.7255,-22.28792 -5.23566,-9.62923 -17.85843,-17.12859 -44.29286,-26.315 -14.27099,-4.9594 -18.40875,-6.76097 -21.25,-9.25218 -1.96859,-1.72605 -2.29758,-6.33274 -0.66951,-9.37482 1.36496,-2.55046 6.86025,-4.88526 11.13739,-4.73198 2.68216,0.0961 2.39286,0.26676 -1.58267,0.93352 -5.80497,0.97359 -9.63521,4.17436 -9.63521,8.05175 0,5.09036 2.41712,6.51687 23.5,13.86907 37.16477,12.96039 48.90429,24.03347 47.15704,44.47998 -1.56854,18.35527 -8.93314,29.16834 -23.1539,33.99572 -9.47927,3.21783 -25.96844,4.22178 -40.89436,2.48988 z M 296.54985,193.68257 c 1.31415,-17.24016 9.02309,-27.38427 24.79733,-32.63051 7.68394,-2.55555 18.74175,-4.02519 29.15282,-3.87457 7.05482,0.10206 6.54541,0.20833 -4.31164,0.89948 -19.77441,1.25881 -29.83937,4.22299 -37.63279,11.08303 -6.08254,5.35407 -9.32859,11.98503 -11.09123,22.65691 -1.40733,8.52073 -1.42443,8.55561 -0.91449,1.86566 z M 378.5,190.86192 c -3.85,-1.0269 -13.525,-2.48623 -21.5,-3.24295 -7.975,-0.75672 -12.63518,-1.43056 -10.35595,-1.49742 9.31666,-0.27327 28.20019,2.35941 38.93689,5.42846 1.77105,0.50625 2.46149,-0.27222 4.63645,-5.22759 1.40553,-3.20233 2.79608,-6.49742 3.09011,-7.32242 0.4752,-1.33333 0.54329,-1.33333 0.61276,0 0.13275,2.54768 -5.75905,14.008 -7.1278,13.8645 C 386.08161,192.79 382.35,191.88881 378.5,190.86192 Z m 120,0 c -3.85,-1.0269 -13.525,-2.48623 -21.5,-3.24295 -7.975,-0.75672 -12.63518,-1.43056 -10.35595,-1.49742 9.31666,-0.27327 28.20019,2.35941 38.93689,5.42846 1.7701,0.50598 2.47747,-0.28877 4.73563,-5.32063 1.46009,-3.2535 3.09632,-8.34859 3.63607,-11.32242 L 514.934,169.5 l -0.43586,5.38487 c -0.49164,6.07406 -5.6773,18.18959 -7.6956,17.97963 C 506.08614,192.79 502.35,191.88881 498.5,190.86192 Z M 417.54397,187 c 1.10805,-9.20834 7.84807,-18.60855 16.51144,-23.02827 2.27612,-1.16119 4.32438,-1.92527 4.55169,-1.69796 0.22731,0.22731 -1.39536,1.22887 -3.60593,2.2257 -4.51831,2.03748 -12.44744,10.00573 -14.15309,14.22293 -0.61787,1.52768 -1.7359,5.0276 -2.4845,7.7776 l -1.36111,5 0.5415,-4.5 z m -22.99634,-15.2925 c 0.47653,-5.7527 0.4574,-5.80225 -2.7839,-7.21086 -1.79505,-0.7801 -2.52608,-1.43597 -1.62451,-1.4575 0.90156,-0.0215 2.60448,0.74836 3.78426,1.71086 1.97401,1.61046 2.06528,2.18856 1.14468,7.25 l -1.00036,5.5 0.47983,-5.7925 z m 120.53132,-4.00577 c -0.0452,-1.03011 -1.46725,-2.40169 -3.32895,-3.21086 -1.7875,-0.77692 -2.51235,-1.4302 -1.61078,-1.45173 2.42027,-0.0578 6.23415,3.38256 5.58168,5.03501 -0.41225,1.04404 -0.58415,0.94431 -0.64195,-0.37242 z M 272,162.5 c -2.475,-0.71701 -3.6,-1.31325 -2.5,-1.32497 1.1,-0.0117 3.8,0.57191 6,1.29697 5.17862,1.70674 2.37224,1.72919 -3.5,0.028 z m 107.91299,-1.07725 c -3.07286,-0.74564 -9.14786,-1.76193 -13.5,-2.25843 -5.19301,-0.59243 -6.49714,-0.94769 -3.79398,-1.03352 4.58714,-0.14567 19.78762,2.30452 23.49237,3.78676 3.35629,1.34283 0.40322,1.10709 -6.19839,-0.49481 z m 120,0 c -3.07286,-0.74564 -9.14786,-1.76193 -13.5,-2.25843 -5.19301,-0.59243 -6.49714,-0.94769 -3.79398,-1.03352 4.58714,-0.14567 19.78762,2.30452 23.49237,3.78676 3.35629,1.34283 0.40322,1.10709 -6.19839,-0.49481 z m -55.07235,-1.40106 c 3.52142,-1.54103 19.78915,-3.20746 27.15936,-2.78215 l 6.5,0.3751 -8,0.22356 c -7.55165,0.21102 -18.92421,1.40729 -25.18328,2.649 -2.63461,0.52267 -2.66539,0.49257 -0.47608,-0.46551 z"
       style="fill:#5bcbb4" />
    <path
       id="path4755"
       d="m 96.431262,290.00028 c -15.994063,-1.66346 -33.601592,-7.17061 -38.4603,-12.02932 -1.474992,-1.47499 -1.609667,-2.52487 -0.848186,-6.61218 1.032562,-5.54235 5.180422,-12.77822 8.912258,-15.54727 2.514904,-1.86608 2.588078,-1.85697 9.21535,1.14798 15.240586,6.91041 36.856356,10.11188 45.078426,6.67648 4.17937,-1.74625 8.67119,-7.07065 8.67119,-10.27844 0,-6.2329 -4.3452,-9.05817 -26.09346,-16.96611 C 84.098296,229.55252 74.045333,224.4634 67.484808,218.45985 L 62.5,213.89824 l 5.653893,4.4409 c 3.109642,2.4425 8.571661,5.87732 12.13782,7.63294 l 6.483926,3.19202 29.611621,0.16795 c 16.28639,0.0924 29.61188,-0.1178 29.61218,-0.46704 8.3e-4,-0.93901 -4.50089,-3.79546 -13.49944,-8.56571 -9.77712,-5.18298 -9.20816,-5.68138 0.77496,-0.67884 20.39574,10.22028 26.61412,20.2125 23.95073,38.48602 -2.54856,17.48569 -9.92417,26.23573 -25.5441,30.30421 -7.04058,1.83384 -25.0803,2.64733 -35.250328,1.58959 z M 94.5,231 c -2.749085,-1.18132 -4.327966,-1.18132 -2.5,0 0.825,0.53316 2.175,0.94464 3,0.9144 0.989055,-0.0362 0.81874,-0.34772 -0.5,-0.9144 z m 128.90393,59.03189 c -18.99975,-2.14328 -32.61633,-9.68727 -38.57818,-21.37345 -4.57814,-8.97389 -5.08342,-12.26871 -5.31505,-34.65844 -0.15354,-14.84032 -0.018,-18.2476 0.43769,-11 0.36306,5.775 0.7482,9.4875 0.85586,8.25 C 180.99543,229.05254 181.28022,229 193,229 l 12,0 0.163,2.75 c 0.0896,1.5125 0.4663,0.275 0.837,-2.75 0.60483,-4.93552 0.69324,-4.525 0.86145,4 0.35153,17.8161 3.26288,23.96669 13.79997,29.15408 l 6.38038,3.14105 13.7291,-0.62237 c 7.55101,-0.3423 18.2291,-1.53221 23.7291,-2.64424 5.5,-1.11203 10.10335,-2.02336 10.22968,-2.02519 0.12632,-0.002 1.21651,1.90917 2.42266,4.24667 1.54859,3.00118 2.32477,6.65053 2.6415,12.41954 l 0.44852,8.16953 -3.87118,1.1075 c -11.67268,3.33942 -40.12541,5.53395 -52.96725,4.08532 z m 113.02733,-0.0367 c -16.65913,-1.72218 -36.93037,-8.32226 -39.3296,-12.80527 -2.1227,-3.9663 2.44851,-15.64545 8.24137,-21.0562 l 2.53336,-2.36625 8.32062,3.57377 c 15.30925,6.57546 33.29355,9.386 42.73432,6.67843 7.00228,-2.00823 11.82779,-9.86423 9.14181,-14.88303 -1.72544,-3.22403 -8.25046,-6.52489 -25.07314,-12.68396 -19.0808,-6.98581 -29.68746,-12.37489 -35.81191,-18.1955 l -4.68809,-4.4555 4.92954,4.13325 c 2.71124,2.27329 8.16005,5.72986 12.10845,7.68127 l 7.17892,3.54801 29.64099,0.16788 c 16.30254,0.0923 29.64124,-0.11787 29.64154,-0.46711 8.3e-4,-0.93901 -4.50089,-3.79546 -13.49944,-8.56571 -10.06042,-5.33317 -9.0891,-5.6234 1.31425,-0.3927 20.02199,10.06687 26.47424,21.09003 23.24316,39.7091 -2.8564,16.45993 -10.36275,24.87868 -25.61739,28.7312 -7.59735,1.91869 -24.63403,2.72083 -35.00876,1.64832 z M 334.5,231 c -2.74909,-1.18132 -4.32797,-1.18132 -2.5,0 0.825,0.53316 2.175,0.94464 3,0.9144 0.98906,-0.0362 0.81874,-0.34772 -0.5,-0.9144 z m 121.93126,58.99522 c -16.65913,-1.72218 -36.93037,-8.32226 -39.3296,-12.80527 -2.1227,-3.9663 2.44851,-15.64545 8.24137,-21.0562 l 2.53336,-2.36625 8.32062,3.57377 c 15.5454,6.67688 34.03266,9.4875 42.90377,6.52267 7.14899,-2.38929 11.63484,-9.75238 8.97236,-14.72727 -1.69818,-3.17309 -8.36629,-6.61945 -22.6056,-11.68352 -18.44547,-6.55996 -32.16261,-13.40527 -38.05003,-18.98823 l -4.91751,-4.66321 4.92954,4.13325 c 2.71124,2.27329 8.16005,5.72986 12.10845,7.68127 l 7.17892,3.54801 29.6177,0.16788 29.6177,0.16788 -2.2605,-2.26162 c -1.24328,-1.24389 -5.62005,-4.04455 -9.72616,-6.22369 -9.14526,-4.85345 -8.49447,-5.31333 0.8557,-0.60466 14.05209,7.07652 21.58445,15.77729 22.84061,26.38359 0.69408,5.86043 -1.18811,18.14812 -3.65003,23.82878 -2.29495,5.29542 -8.36849,12.00869 -13.0037,14.3734 -8.85455,4.51726 -28.22564,6.68977 -44.57697,4.99942 z M 454,231 c -0.825,-0.53316 -1.95,-0.96937 -2.5,-0.96937 -0.55,0 -0.325,0.43621 0.5,0.96937 0.825,0.53316 1.95,0.96937 2.5,0.96937 0.55,0 0.325,-0.43621 -0.5,-0.96937 z M 121,215 c -0.825,-0.53316 -1.05,-0.96937 -0.5,-0.96937 0.55,0 1.675,0.43621 2.5,0.96937 0.825,0.53316 1.05,0.96937 0.5,0.96937 -0.55,0 -1.675,-0.43621 -2.5,-0.96937 z m 237,-1 c -0.825,-0.53316 -1.05,-0.96937 -0.5,-0.96937 0.55,0 1.675,0.43621 2.5,0.96937 0.825,0.53316 1.05,0.96937 0.5,0.96937 -0.55,0 -1.675,-0.43621 -2.5,-0.96937 z m 120,0 c -0.825,-0.53316 -1.05,-0.96937 -0.5,-0.96937 0.55,0 1.675,0.43621 2.5,0.96937 0.825,0.53316 1.05,0.96937 0.5,0.96937 -0.55,0 -1.675,-0.43621 -2.5,-0.96937 z m -270.92105,-9.58333 c 0.048,-1.16495 0.28494,-1.4019 0.60416,-0.60417 0.28887,0.72187 0.25335,1.58437 -0.0789,1.91667 -0.3323,0.33229 -0.56864,-0.25834 -0.52522,-1.3125 z m -28,-5 c 0.048,-1.16495 0.28494,-1.4019 0.60416,-0.60417 0.28887,0.72187 0.25335,1.58437 -0.0789,1.91667 -0.3323,0.33229 -0.56864,-0.25834 -0.52522,-1.3125 z M 297.28601,196.5 c 0.008,-2.75 0.20172,-3.75631 0.43157,-2.23625 0.22986,1.52006 0.22371,3.77006 -0.0136,5 -0.23736,1.22994 -0.42542,-0.0137 -0.41792,-2.76375 z M 417.29966,196 c 0,-3.025 0.18747,-4.2625 0.41659,-2.75 0.22913,1.5125 0.22913,3.9875 0,5.5 -0.22912,1.5125 -0.41659,0.275 -0.41659,-2.75 z m 28.85823,1 c 0,-1.375 0.22698,-1.9375 0.50439,-1.25 0.27741,0.6875 0.27741,1.8125 0,2.5 -0.27741,0.6875 -0.50439,0.125 -0.50439,-1.25 z M 57.157895,196 c 0,-1.375 0.226973,-1.9375 0.504386,-1.25 0.277412,0.6875 0.277412,1.8125 0,2.5 -0.277413,0.6875 -0.504386,0.125 -0.504386,-1.25 z m 28.921052,0.41667 c 0.04798,-1.16495 0.284941,-1.4019 0.604167,-0.60417 0.288871,0.72187 0.253344,1.58437 -0.07895,1.91667 -0.332292,0.33229 -0.568641,-0.25834 -0.52522,-1.3125 z m 240.000003,0 c 0.048,-1.16495 0.28494,-1.4019 0.60416,-0.60417 0.28887,0.72187 0.25335,1.58437 -0.0789,1.91667 -0.33229,0.33229 -0.56864,-0.25834 -0.52522,-1.3125 z M 212.5,194 c 0.99549,-1.1 2.03498,-2 2.30998,-2 0.275,0 -0.31449,0.9 -1.30998,2 -0.99549,1.1 -2.03498,2 -2.30998,2 -0.275,0 0.31449,-0.9 1.30998,-2 z m -66.6875,-2.68311 c 0.72187,-0.28887 1.58437,-0.25335 1.91667,0.0789 0.33229,0.33229 -0.25834,0.56864 -1.3125,0.52522 -1.16495,-0.048 -1.4019,-0.28494 -0.60417,-0.60416 z m 240,0 c 0.72187,-0.28887 1.58438,-0.25335 1.91667,0.0789 0.33229,0.33229 -0.25834,0.56864 -1.3125,0.52522 -1.16495,-0.048 -1.4019,-0.28494 -0.60417,-0.60416 z m 120,0 c 0.72187,-0.28887 1.58438,-0.25335 1.91667,0.0789 0.33229,0.33229 -0.25834,0.56864 -1.3125,0.52522 -1.16495,-0.048 -1.4019,-0.28494 -0.60417,-0.60416 z m -379,-4 c 0.72187,-0.28887 1.58437,-0.25335 1.91667,0.0789 0.33229,0.33229 -0.25834,0.56864 -1.3125,0.52522 -1.16495,-0.048 -1.4019,-0.28494 -0.60417,-0.60416 z m 125,0 c 0.72187,-0.28887 1.58437,-0.25335 1.91667,0.0789 0.33229,0.33229 -0.25834,0.56864 -1.3125,0.52522 -1.16495,-0.048 -1.4019,-0.28494 -0.60417,-0.60416 z m -151,-1 c 0.72187,-0.28887 1.58437,-0.25335 1.91667,0.0789 0.33229,0.33229 -0.25834,0.56864 -1.3125,0.52522 -1.16495,-0.048 -1.4019,-0.28494 -0.60417,-0.60416 z m 14.9375,0.0208 c 0.6875,-0.27741 1.8125,-0.27741 2.5,0 0.6875,0.27741 0.125,0.50439 -1.25,0.50439 -1.375,0 -1.9375,-0.22698 -1.25,-0.50439 z m 114.0625,-0.0208 c 0.72187,-0.28887 1.58437,-0.25335 1.91667,0.0789 0.33229,0.33229 -0.25834,0.56864 -1.3125,0.52522 -1.16495,-0.048 -1.4019,-0.28494 -0.60417,-0.60416 z m 10.9375,0.0208 c 0.6875,-0.27741 1.8125,-0.27741 2.5,0 0.6875,0.27741 0.125,0.50439 -1.25,0.50439 -1.375,0 -1.9375,-0.22698 -1.25,-0.50439 z m 99,0 c 0.6875,-0.27741 1.8125,-0.27741 2.5,0 0.6875,0.27741 0.125,0.50439 -1.25,0.50439 -1.375,0 -1.9375,-0.22698 -1.25,-0.50439 z m 16,0 c 0.6875,-0.27741 1.8125,-0.27741 2.5,0 0.6875,0.27741 0.125,0.50439 -1.25,0.50439 -1.375,0 -1.9375,-0.22698 -1.25,-0.50439 z m 104,0 c 0.6875,-0.27741 1.8125,-0.27741 2.5,0 0.6875,0.27741 0.125,0.50439 -1.25,0.50439 -1.375,0 -1.9375,-0.22698 -1.25,-0.50439 z m 16,0 c 0.6875,-0.27741 1.8125,-0.27741 2.5,0 0.6875,0.27741 0.125,0.50439 -1.25,0.50439 -1.375,0 -1.9375,-0.22698 -1.25,-0.50439 z m -358.9375,-28.0208 c 0.72187,-0.28887 1.58437,-0.25335 1.91667,0.0789 0.33229,0.33229 -0.25834,0.56864 -1.3125,0.52522 -1.16495,-0.048 -1.4019,-0.28494 -0.60417,-0.60416 z m 240,0 c 0.72187,-0.28887 1.58438,-0.25335 1.91667,0.0789 0.33229,0.33229 -0.25834,0.56864 -1.3125,0.52522 -1.16495,-0.048 -1.4019,-0.28494 -0.60417,-0.60416 z m 120,0 c 0.72187,-0.28887 1.58438,-0.25335 1.91667,0.0789 0.33229,0.33229 -0.25834,0.56864 -1.3125,0.52522 -1.16495,-0.048 -1.4019,-0.28494 -0.60417,-0.60416 z"
       style="fill:#2ec6a8" />
    <path
       id="path4753"
       d="M 205,231.66667 205,229 l -11.93045,0 c -11.6022,0 -11.94005,0.0619 -12.27958,2.25 -0.19202,1.2375 -0.66558,-4.50528 -1.05236,-12.76174 -0.85547,-18.26189 0.14827,-25.61515 4.79942,-35.15987 8.25502,-16.94027 24.39007,-24.66871 51.46297,-24.64997 17.08714,0.0118 39.76195,3.46434 43.85542,6.67751 1.77706,1.39491 0.75546,10.96316 -1.92512,18.03054 -3.23501,8.52915 -2.20931,8.16102 -15.56929,5.58796 -8.10541,-1.56106 -15.81893,-2.31446 -24.36101,-2.3794 -11.99797,-0.0912 -12.73923,0.0257 -18.45657,2.91085 -4.01399,2.02558 -6.935,4.398 -8.95673,7.27456 -2.92381,4.16007 -3.02067,4.67978 -3.80691,20.42428 -0.44372,8.88557 -1.0257,16.37452 -1.29328,16.6421 C 205.21893,234.1144 205,233.13333 205,231.66667 Z M 85.776017,228.53993 c -14.658903,-6.3143 -24.358479,-14.7746 -26.73041,-23.31519 -1.507727,-5.42885 -1.275121,-16.08888 0.480029,-21.99911 1.837585,-6.18782 6.607149,-12.69579 12.003491,-16.37851 9.947271,-6.78849 28.616893,-9.76604 49.600953,-7.91068 12.23414,1.08171 31.25081,5.04445 33.10482,6.89846 2.43914,2.43914 -4.31259,25.1651 -7.4764,25.1651 -0.74367,0 -5.60607,-0.96365 -10.80532,-2.14144 -7.27448,-1.6479 -13.02551,-2.16646 -24.95318,-2.25 -13.938241,-0.0976 -15.852655,0.098 -19,1.94189 -4.795505,2.80942 -6.779401,6.98028 -4.896973,10.29519 2.320486,4.08633 5.695886,5.89641 22.396973,12.01057 8.8,3.22163 18.89444,7.31976 22.4321,9.10696 7.22517,3.65012 14.06757,7.98833 14.06854,8.91972 3.6e-4,0.33941 -12.48714,0.53346 -27.75,0.43122 -24.376761,-0.16328 -27.385905,-0.0168 -24.75064,1.2049 6.222419,2.88468 -0.330483,1.20566 -7.723983,-1.97908 z M 325,228.1677 c -14.34887,-6.29042 -21.2686,-12.05897 -25.27092,-21.06682 -1.60964,-3.62274 -1.87973,-6.0053 -1.53041,-13.5 0.86586,-18.57735 9.5791,-28.40593 29.48757,-33.26215 14.12756,-3.4461 43.83797,-1.7762 60.81376,3.4181 l 6,1.83589 -0.30912,4.95364 c -0.33652,5.39264 -3.47799,16.09644 -5.55971,18.94336 -1.24555,1.7034 -1.78448,1.68508 -12.2171,-0.41518 -13.68466,-2.75496 -31.92798,-3.75321 -39.53027,-2.16304 -11.43768,2.39242 -14.2183,11.72454 -5.03081,16.88408 2.00585,1.12646 10.41668,4.50494 18.69072,7.50774 8.27405,3.00279 17.91849,6.9108 21.4321,8.68447 7.18232,3.62562 14.02386,7.9648 14.02483,8.8951 3.6e-4,0.33941 -12.48714,0.53346 -27.75,0.43122 -24.37676,-0.16328 -27.3859,-0.0168 -24.75064,1.2049 6.78955,3.1476 -0.65264,1.08891 -8.5,-2.35131 z m 120,0 c -19.80857,-8.6839 -26.9344,-17.1986 -26.97804,-32.2362 -0.0506,-17.42395 7.20271,-28.08016 22.80671,-33.50669 10.4287,-3.62675 24.73306,-4.86489 40.30141,-3.48837 13.07305,1.15589 31.6987,5.16849 32.88257,7.08402 1.76199,2.85098 -3.71733,23.54525 -6.51884,24.62029 -0.65673,0.25201 -5.85055,-0.49073 -11.54182,-1.65053 -5.69126,-1.15981 -15.54621,-2.3663 -21.89987,-2.6811 -17.83709,-0.88375 -25.3787,1.4307 -27.50457,8.44088 -1.80556,5.95392 2.24514,8.7387 24.26682,16.68303 16.35521,5.90015 29.62666,12.27941 32.9901,15.85755 l 2.07686,2.20942 -27.69067,-0.23244 c -24.57636,-0.20629 -27.40949,-0.0697 -25.19066,1.21457 4.47508,2.59017 0.68963,1.49503 -8,-2.31443 z"
       style="fill:#26ad92" />
  </g>
</svg>
