<?xml version="1.0" encoding="UTF-8" standalone="no"?>
<svg width="66px" height="67px" viewBox="0 0 66 67" version="1.1" xmlns="http://www.w3.org/2000/svg" xmlns:xlink="http://www.w3.org/1999/xlink">
    <defs></defs>
    <g id="Page-1" stroke="none" stroke-width="1" fill="none" fill-rule="evenodd">
        <g id="vi_logo" transform="translate(2.000000, 2.000000)">
            <path d="M31.3,62.4 C48.5,62.4 62.4,48.5 62.4,31.2 C62.4,14 48.5,0 31.3,0 C14.1,0.1 0.2,14 0.2,31.2 C0.2,48.4 14.1,62.4 31.3,62.4" id="Fill-1" fill="#FEF200"></path>
            <path d="M31,63 C48.1,63 62,48.9 62,31.5 C62,14.1 48.1,0 31,0 C13.9,0 0,14.1 0,31.5 C0,48.9 13.9,63 31,63 L31,63 L31,63 L31,63 L31,63 Z" id="Stroke-2" stroke="#000000" stroke-width="4"></path>
            <path d="M22,45 L28,45 L36.3,24.5 L30.1,24.5 L27.5,31 C26.7,33.1 25.8,35.5 25,37.5 L25,37.5 C24.3,35.4 23.5,33.2 22.7,31 L20.3,24.4 L13.6,24.4 L22,45 L22,45 L22,45 L22,45 L22,45 Z M38.4,45 L44.7,45 L44.7,24.5 L38.4,24.5 L38.4,45 L38.4,45 L38.4,45 L38.4,45 Z" id="Fill-4" fill="#000000"></path>
            <polygon id="Fill-5" fill="#000000" points="38.4 21.1 44.7 21.1 44.7 14.8 38.4 14.8"></polygon>
        </g>
    </g>
</svg>