<?xml version="1.0" encoding="UTF-8" ?>
<!DOCTYPE svg PUBLIC "-//W3C//DTD SVG 1.1//EN" "http://www.w3.org/Graphics/SVG/1.1/DTD/svg11.dtd">
<svg width="291pt" height="102pt" viewBox="0 0 291 102" version="1.1" xmlns="http://www.w3.org/2000/svg">
<g id="#d41b1bff">
<path fill="#d41b1b" opacity="1.00" d=" M 134.22 0.00 L 136.28 0.00 C 138.21 2.77 140.29 5.54 141.37 8.78 C 146.07 23.37 150.42 38.08 154.11 52.97 C 156.99 53.59 159.87 54.18 162.78 54.72 C 160.32 56.04 157.93 57.50 155.71 59.20 C 159.48 73.10 162.31 87.54 160.69 102.00 L 160.22 102.00 C 157.27 97.82 155.25 93.07 153.74 88.20 C 150.70 78.55 148.11 68.75 145.55 58.96 C 133.86 58.69 122.16 58.72 110.48 59.07 C 107.53 66.40 106.84 74.33 104.80 81.91 C 107.29 80.86 109.79 79.84 112.23 78.69 C 109.51 82.41 108.42 87.03 105.61 90.69 C 104.93 91.63 103.46 92.70 102.32 91.92 C 100.38 89.03 100.03 85.41 100.02 82.02 C 100.40 74.40 102.15 66.92 103.70 59.47 C 100.63 57.79 97.40 56.44 94.07 55.37 C 97.79 54.25 101.55 53.26 105.35 52.46 C 108.93 38.97 112.44 25.28 118.84 12.80 C 121.94 6.66 127.05 0.99 134.22 0.00 M 112.54 51.59 C 122.85 50.51 133.26 50.21 143.59 51.15 C 139.61 36.37 136.40 21.34 130.99 6.99 C 121.60 20.29 117.03 36.15 112.54 51.59 Z" />
<path fill="#d41b1b" opacity="1.00" d=" M 179.07 21.80 C 190.30 18.50 202.25 16.78 213.90 18.60 C 218.50 19.19 222.08 22.45 226.33 24.03 C 227.11 34.05 222.44 43.58 215.72 50.73 C 213.43 53.26 210.98 55.64 208.62 58.11 C 221.21 61.81 234.23 65.27 245.17 72.80 C 247.16 74.44 250.07 76.01 249.97 78.99 C 250.21 81.17 248.91 83.09 248.22 85.06 C 234.30 76.47 218.77 70.79 203.05 66.53 C 199.69 67.37 196.55 68.93 193.12 69.52 C 193.42 65.50 196.26 62.45 197.83 58.89 C 200.72 52.72 206.59 48.82 210.57 43.45 C 214.78 38.26 217.28 32.01 219.65 25.84 C 208.29 26.06 197.06 28.03 186.06 30.79 C 188.32 47.14 188.01 63.71 189.66 80.11 C 190.01 84.19 191.50 88.17 190.99 92.30 C 182.82 73.31 179.20 51.98 182.71 31.47 C 176.76 32.64 171.17 35.32 165.07 35.77 C 166.33 32.98 167.06 29.67 169.60 27.69 C 172.55 25.43 175.31 22.65 179.07 21.80 Z" />
</g>
<g id="#000000ff">
<path fill="#000000" opacity="1.00" d=" M 0.99 37.74 C 2.42 38.67 4.57 39.00 5.14 40.83 C 6.20 43.78 6.47 46.95 6.79 50.05 C 7.70 61.32 7.41 72.64 7.01 83.93 C 15.68 82.83 24.32 81.28 32.68 78.73 C 38.03 77.12 43.19 74.96 48.49 73.23 C 51.76 76.98 48.06 81.82 44.28 83.29 C 33.22 88.36 21.44 91.72 9.67 94.68 C 7.37 95.54 5.33 93.53 3.98 91.92 C 2.16 87.49 0.83 82.78 0.92 77.95 C 0.76 64.55 2.36 51.13 0.99 37.74 Z" />
<path fill="#000000" opacity="1.00" d=" M 57.42 78.68 C 53.50 66.91 61.06 52.75 72.89 49.19 C 80.01 46.82 88.30 53.44 87.30 61.00 C 85.16 71.13 72.04 77.47 63.21 71.22 C 60.75 75.25 63.70 82.62 69.06 81.61 C 78.01 80.59 85.93 75.96 94.18 72.69 C 90.49 76.55 87.09 81.03 82.04 83.18 C 77.21 85.57 71.96 88.72 66.36 87.43 C 62.56 85.64 58.61 82.96 57.42 78.68 M 63.11 65.19 C 67.33 68.95 73.63 66.59 77.60 63.63 C 79.08 61.88 81.60 58.81 79.13 56.86 C 77.22 55.26 74.53 54.23 72.04 54.84 C 67.77 56.83 64.81 60.90 63.11 65.19 Z" />
<path fill="#000000" opacity="1.00" d=" M 249.03 55.23 C 251.47 53.41 255.62 54.47 256.64 57.41 C 258.72 61.94 259.08 66.99 259.56 71.88 C 264.88 66.45 269.72 60.07 276.81 56.85 C 278.96 56.18 281.84 55.68 283.55 57.53 C 286.75 60.76 287.12 65.53 288.36 69.66 C 289.12 72.44 290.59 75.11 290.44 78.06 C 289.90 80.74 287.56 82.41 285.72 84.19 C 281.39 77.42 281.55 69.11 279.38 61.62 C 276.98 59.67 273.94 62.44 272.19 64.14 C 266.25 70.84 266.07 80.97 259.24 87.13 C 258.62 86.77 257.39 86.04 256.78 85.68 C 254.22 76.87 252.44 67.85 249.78 59.06 C 249.49 57.81 248.90 56.55 249.03 55.23 Z" />
</g>
</svg>
