<?xml version="1.0" encoding="utf-8"?>
<!-- Generator: Adobe Illustrator 15.0.2, SVG Export Plug-In . SVG Version: 6.00 Build 0)  -->
<!DOCTYPE svg PUBLIC "-//W3C//DTD SVG 1.1//EN" "http://www.w3.org/Graphics/SVG/1.1/DTD/svg11.dtd">
<svg version="1.1" id="Layer_1" xmlns="http://www.w3.org/2000/svg" xmlns:xlink="http://www.w3.org/1999/xlink" x="0px" y="0px"
	 width="180px" height="180px" viewBox="0 0 180 180" enable-background="new 0 0 180 180" xml:space="preserve">
<g>
	<path fill="#000000" d="M127.464,23.406c-16.397,0-30.56,9.086-37.486,22.324c-6.931-13.238-21.085-22.324-37.479-22.324
		c-23.214,0-42.026,18.194-42.026,40.63c0,0.133,0.014,0.255,0.024,0.383c-0.216,4.421-0.059,47.26,79.483,92.142v0.03
		c0.012-0.005,0.021-0.012,0.025-0.019c0.007,0.007,0.017,0.014,0.027,0.019l0.003-0.03c84.002-47.395,79.459-92.525,79.459-92.525
		C169.49,41.6,150.671,23.406,127.464,23.406L127.464,23.406z"/>
</g>
</svg>
