<?xml version="1.0"?>
<svg width="600" height="600" xmlns="http://www.w3.org/2000/svg">
 <g>
  <title>background</title>
  <rect x="-1" y="-1" width="602" height="602" id="canvas_background" fill="none"/>
 </g>

 <g>
  <title>Layer 1</title>
  <path opacity="0.1" id="Selection #2" fill="#000000" stroke="black" d="m120.333237,133.422348c0,0 81,0 81,0c0,0 248.999985,0 248.999985,0c0,0 70.000031,0 70.000031,0c22.099976,-0.059998 38.960022,14.169998 39,36.910004c0,0 0,242.999985 0,242.999985c-0.109985,22.140015 -17.840027,35.970001 -39,36c0,0 -365,0 -365,0c0,0 -70,0 -70,0c-22.229992,-0.029999 -38.960003,-14.109985 -38.93,-37c0,0 0,-209.999985 0,-209.999985c0,0 0,-23 0,-23c0,0 0,-16 0,-16c1.779999,-10.509995 9.689999,-20.720001 18.93,-25.679993c4.439995,-2.380005 7.150002,-2.970016 12,-4.230011c0,0 43,0 43,0l-0.000015,0zm62.259995,89.910004c-7.169998,-8.820007 -8.179993,-14.980011 -20.259995,-15c0,0 -41,0 -41,0c0,0 0,165.999985 0,165.999985c0,0 48,0 48,0c0,0 0,-95 0,-95c0,0 13.399994,15 13.399994,15c0,0 23.210007,29 23.210007,29c0,0 14.389999,16 14.389999,16c0,0 31.600006,-39 31.600006,-39c0,0 18.399979,-21 18.399979,-21c0,0 -1,32 -1,32c0,0 0,63 0,63c0,0 49,0 49,0c0,0 0,-165.999985 0,-165.999985c0,0 -42,0 -42,0c0,0 -6.709991,0.570007 -6.709991,0.570007c0,0 -13.490021,15.429993 -13.490021,15.429993c0,0 -24.37999,30 -24.37999,30c0,0 -12.419983,14.999985 -12.419983,14.999985c0,0 -36.740005,-45.999985 -36.740005,-45.999985zm223.73999,-15c0,0 0,64.999985 0,64.999985c0,4.27002 1.230011,17.619995 -2.309998,19.97998c-1.850006,1.230042 -5.5,1.02002 -7.690002,1.02002c0,0 -38,0 -38,0c2.799988,5.940002 18.589996,22.309998 23.970001,28c0,0 47.029999,52 47.029999,52c7.390015,-5.290009 25.899994,-26.970001 33.170013,-35c0,0 40.829987,-45 40.829987,-45c0,0 -49,0 -49,0c0,0 0,-85.999985 0,-85.999985c0,0 -48,0 -48,0z"/>
 </g>
</svg>