<?xml version="1.0" encoding="UTF-8" standalone="no"?>
<svg
   xmlns:dc="http://purl.org/dc/elements/1.1/"
   xmlns:cc="http://creativecommons.org/ns#"
   xmlns:rdf="http://www.w3.org/1999/02/22-rdf-syntax-ns#"
   xmlns:svg="http://www.w3.org/2000/svg"
   xmlns="http://www.w3.org/2000/svg"
   xmlns:sodipodi="http://sodipodi.sourceforge.net/DTD/sodipodi-0.dtd"
   xmlns:inkscape="http://www.inkscape.org/namespaces/inkscape"
   width="4.16667in"
   height="4.16667in"
   viewBox="0 0 300 300"
   id="svg2"
   version="1.1"
   inkscape:version="0.48.4 r9939"
   sodipodi:docname="css3.svg">
  <metadata
     id="metadata9">
    <rdf:RDF>
      <cc:Work
         rdf:about="">
        <dc:format>image/svg+xml</dc:format>
        <dc:type
           rdf:resource="http://purl.org/dc/dcmitype/StillImage" />
        <dc:title></dc:title>
      </cc:Work>
    </rdf:RDF>
  </metadata>
  <defs
     id="defs7" />
  <sodipodi:namedview
     pagecolor="#ffffff"
     bordercolor="#666666"
     borderopacity="1"
     objecttolerance="10"
     gridtolerance="10"
     guidetolerance="10"
     inkscape:pageopacity="0"
     inkscape:pageshadow="2"
     inkscape:window-width="663"
     inkscape:window-height="480"
     id="namedview5"
     showgrid="false"
     inkscape:zoom="0.62933287"
     inkscape:cx="187.50014"
     inkscape:cy="187.50014"
     inkscape:window-x="61"
     inkscape:window-y="29"
     inkscape:window-maximized="0"
     inkscape:current-layer="svg2" />
  <path
     id="Selection"
     d="M 287.00,27.00            C 287.00,27.00 257.40,175.00 257.40,175.00              257.40,175.00 249.00,217.00 249.00,217.00              248.35,220.25 246.32,232.49 244.84,234.52              242.72,237.41 232.64,239.87 229.00,241.03              229.00,241.03 189.72,253.99 189.72,253.99              189.72,253.99 161.00,263.65 161.00,263.65              161.00,263.65 149.00,267.42 149.00,267.42              149.00,267.42 120.00,276.70 120.00,276.70              116.79,276.90 112.10,274.93 109.00,273.82              109.00,273.82 86.00,264.81 86.00,264.81              86.00,264.81 38.00,246.42 38.00,246.42              38.00,246.42 9.00,235.00 9.00,235.00              9.00,235.00 20.00,179.00 20.00,179.00              20.00,179.00 68.00,179.00 68.00,179.00              67.65,183.32 63.86,198.01 65.19,200.78              66.41,203.31 70.52,204.63 73.00,205.58              73.00,205.58 95.00,213.95 95.00,213.95              95.00,213.95 118.00,222.68 118.00,222.68              120.47,223.59 125.69,225.86 128.00,226.07              131.31,226.37 144.03,221.78 148.00,220.50              148.00,220.50 185.00,208.33 185.00,208.33              188.31,207.23 199.58,203.83 201.72,202.16              205.43,199.27 205.74,192.34 206.66,188.00              206.66,188.00 214.00,150.00 214.00,150.00              214.00,150.00 26.00,150.00 26.00,150.00              26.00,150.00 32.00,117.00 32.00,117.00              32.00,117.00 35.16,104.57 35.16,104.57              35.16,104.57 43.00,103.00 43.00,103.00              43.00,103.00 224.00,103.00 224.00,103.00              224.00,103.00 230.00,74.00 230.00,74.00              230.00,74.00 41.00,74.00 41.00,74.00              41.00,74.00 50.00,27.00 50.00,27.00              50.00,27.00 287.00,27.00 287.00,27.00 Z"
     style="fill:#000000;stroke:none;opacity:0.04" />
</svg>
