<?xml version="1.0" encoding="UTF-8" standalone="no"?>
<svg
   xmlns:dc="http://purl.org/dc/elements/1.1/"
   xmlns:cc="http://creativecommons.org/ns#"
   xmlns:rdf="http://www.w3.org/1999/02/22-rdf-syntax-ns#"
   xmlns:svg="http://www.w3.org/2000/svg"
   xmlns="http://www.w3.org/2000/svg"
   version="1.1"
   id="svg2"
   viewBox="0 0 507 437"
   height="6.06944in"
   width="7.04167in">
  <metadata
     id="metadata9">
    <rdf:RDF>
      <cc:Work
         rdf:about="">
        <dc:format>image/svg+xml</dc:format>
        <dc:type
           rdf:resource="http://purl.org/dc/dcmitype/StillImage" />
        <dc:title></dc:title>
      </cc:Work>
    </rdf:RDF>
  </metadata>
  <defs
     id="defs7" />
  <path
     style="stroke:none;fill:#639baf;fill-opacity:0.94117647"
     d="M 86.04,95.00            C 85.52,83.02 91.31,77.26 98.92,69.00              105.61,61.73 112.24,54.86 120.00,48.66              151.89,23.22 185.47,7.50 226.00,1.87              232.33,0.99 238.60,0.01 245.00,0.00              245.00,0.00 271.00,0.00 271.00,0.00              288.50,0.21 313.48,6.41 330.00,12.31              393.94,35.14 441.89,84.63 463.33,149.00              468.42,164.27 473.81,187.99 474.00,204.00              474.04,207.68 473.16,216.83 475.60,219.44              478.05,222.06 486.15,222.20 490.00,223.30              500.61,226.33 507.33,234.89 506.96,246.00              506.52,259.36 498.60,263.93 489.00,271.13              489.00,271.13 441.00,306.63 441.00,306.63              432.52,312.93 423.31,321.58 413.00,324.00              415.72,327.22 417.96,329.98 419.44,334.00              425.18,349.51 413.05,361.94 403.00,372.00              403.00,372.00 389.00,385.08 389.00,385.08              357.21,411.62 318.30,429.62 277.00,434.71              264.10,436.31 250.99,436.15 238.00,436.00              226.29,435.86 208.48,432.74 197.00,429.87              126.85,412.34 70.53,362.43 46.31,294.00              40.37,277.21 34.21,252.76 34.00,235.00              33.96,231.00 35.03,218.31 32.40,215.74              30.33,213.71 20.54,213.28 17.00,212.22              5.43,208.74 -1.00,196.61 1.52,185.00              4.03,173.41 15.19,167.23 24.00,160.63              24.00,160.63 62.00,132.63 62.00,132.63              72.18,125.03 81.25,117.06 93.00,112.00              89.22,105.93 86.37,102.54 86.04,95.00 Z            M 459.00,242.58            C 456.57,242.24 451.31,242.04 449.69,240.26              448.21,238.64 448.81,236.00 448.92,234.00              448.92,234.00 450.00,219.00 450.00,219.00              450.32,191.71 445.12,164.04 434.14,139.00              408.32,80.13 355.90,36.57 292.00,25.92              283.74,24.54 275.39,23.01 267.00,23.00              254.90,22.98 243.03,22.75 231.00,24.28              198.53,28.43 166.11,42.34 140.00,61.89              133.72,66.59 121.34,77.37 116.09,83.00              114.18,85.05 109.21,90.22 109.18,93.00              109.15,95.61 113.16,99.93 114.79,102.00              114.79,102.00 130.40,122.00 130.40,122.00              135.10,127.88 142.71,139.76 149.00,143.00              163.40,121.67 184.01,104.17 208.00,94.45              248.05,78.23 293.17,83.01 329.00,107.00              335.05,111.05 342.79,116.90 347.83,122.09              371.08,146.03 386.95,178.16 387.00,212.00              387.00,212.00 386.00,233.00 386.00,233.00              386.00,233.00 349.00,228.00 349.00,228.00              349.00,228.00 383.20,272.00 383.20,272.00              383.20,272.00 408.00,302.00 408.00,302.00              408.00,302.00 459.00,264.13 459.00,264.13              459.00,264.13 482.00,246.00 482.00,246.00              482.00,246.00 459.00,242.58 459.00,242.58 Z            M 354.24,169.00            C 336.48,132.89 305.16,110.84 265.00,107.91              265.00,107.91 258.00,107.18 258.00,107.18              258.00,107.18 251.00,107.91 251.00,107.91              238.43,108.77 229.88,109.96 218.00,114.86              203.68,120.76 190.87,128.80 180.04,140.00              168.67,151.75 169.81,158.29 154.00,166.00              161.29,183.07 192.05,200.35 174.61,221.98              172.44,224.68 170.06,226.57 167.00,228.18              162.51,230.53 159.02,231.16 154.00,230.96              154.00,230.96 142.00,230.00 142.00,230.00              142.00,230.00 144.21,243.00 144.21,243.00              147.10,256.60 152.92,270.50 160.75,282.00              176.13,304.61 200.91,321.62 228.00,326.54              237.57,328.28 247.31,328.11 257.00,328.00              267.75,327.87 284.21,323.18 294.00,318.69              307.44,312.53 319.99,303.01 329.83,292.00              337.73,283.16 340.58,273.63 353.00,270.00              343.97,252.88 314.62,234.42 332.39,213.04              334.58,210.41 336.97,208.79 340.00,207.28              344.57,204.99 347.01,204.90 352.00,205.01              352.00,205.01 364.00,206.00 364.00,206.00              363.75,194.43 359.34,179.36 354.24,169.00 Z            M 53.00,168.63            C 46.03,173.85 29.71,184.97 25.00,191.00              25.00,191.00 59.00,195.00 59.00,195.00              59.00,195.00 58.00,210.00 58.00,210.00              58.00,210.00 58.00,230.00 58.00,230.00              58.04,254.42 66.47,284.12 77.11,306.00              107.79,369.10 167.50,408.31 237.00,413.09              237.00,413.09 247.00,414.00 247.00,414.00              277.91,414.36 308.15,406.91 336.00,393.68              351.24,386.44 371.84,371.60 384.00,359.96              386.87,357.22 396.84,347.40 397.69,344.00              398.66,340.15 391.57,333.00 389.21,330.00              389.21,330.00 369.60,305.00 369.60,305.00              365.99,300.48 363.26,295.61 358.00,293.00              351.31,303.58 342.60,313.09 333.00,321.08              291.48,355.61 234.17,360.60 187.00,334.69              173.76,327.42 159.12,314.50 149.44,303.00              131.74,281.99 120.04,251.58 120.00,224.00              120.00,224.00 121.00,203.00 121.00,203.00              121.00,203.00 158.00,208.00 158.00,208.00              158.00,208.00 137.40,181.00 137.40,181.00              137.40,181.00 100.00,134.00 100.00,134.00              100.00,134.00 53.00,168.63 53.00,168.63 Z"
     stroke-width="1"
     stroke="black"
     fill="none"
     id="Selection" />
</svg>
