<?xml version="1.0" encoding="UTF-8" standalone="no"?>
<svg
   xmlns:dc="http://purl.org/dc/elements/1.1/"
   xmlns:cc="http://creativecommons.org/ns#"
   xmlns:rdf="http://www.w3.org/1999/02/22-rdf-syntax-ns#"
   xmlns:svg="http://www.w3.org/2000/svg"
   xmlns="http://www.w3.org/2000/svg"
   xmlns:sodipodi="http://sodipodi.sourceforge.net/DTD/sodipodi-0.dtd"
   xmlns:inkscape="http://www.inkscape.org/namespaces/inkscape"
   width="4.16667in"
   height="4.16667in"
   viewBox="0 0 300 300"
   id="svg2"
   version="1.1"
   inkscape:version="0.48.4 r9939"
   sodipodi:docname="html5.svg">
  <metadata
     id="metadata9">
    <rdf:RDF>
      <cc:Work
         rdf:about="">
        <dc:format>image/svg+xml</dc:format>
        <dc:type
           rdf:resource="http://purl.org/dc/dcmitype/StillImage" />
        <dc:title></dc:title>
      </cc:Work>
    </rdf:RDF>
  </metadata>
  <defs
     id="defs7" />
  <sodipodi:namedview
     pagecolor="#ffffff"
     bordercolor="#666666"
     borderopacity="1"
     objecttolerance="10"
     gridtolerance="10"
     guidetolerance="10"
     inkscape:pageopacity="0"
     inkscape:pageshadow="2"
     inkscape:window-width="427"
     inkscape:window-height="409"
     id="namedview5"
     showgrid="false"
     inkscape:zoom="0.62933287"
     inkscape:cx="-46.080542"
     inkscape:cy="187.50014"
     inkscape:window-x="1013"
     inkscape:window-y="21"
     inkscape:window-maximized="0"
     inkscape:current-layer="svg2" />
  <path
     id="Selection"
     d="M 261.00,27.00            C 261.00,27.00 256.83,73.00 256.83,73.00              256.83,73.00 246.17,190.00 246.17,190.00              246.17,190.00 242.17,235.00 242.17,235.00              242.17,235.00 239.98,251.44 239.98,251.44              239.98,251.44 229.00,255.71 229.00,255.71              229.00,255.71 201.00,263.58 201.00,263.58              201.00,263.58 165.00,273.63 165.00,273.63              165.00,273.63 150.00,277.38 150.00,277.38              150.00,277.38 131.73,272.69 131.73,272.69              131.73,272.69 93.58,261.94 93.58,261.94              93.58,261.94 70.00,255.42 70.00,255.42              70.00,255.42 60.02,251.44 60.02,251.44              60.02,251.44 57.83,235.00 57.83,235.00              57.83,235.00 53.83,190.00 53.83,190.00              53.83,190.00 43.17,73.00 43.17,73.00              43.17,73.00 39.00,27.00 39.00,27.00              39.00,27.00 261.00,27.00 261.00,27.00 Z            M 82.00,74.00            C 82.00,74.00 83.83,96.00 83.83,96.00              83.83,96.00 86.17,125.00 86.17,125.00              86.17,125.00 89.00,156.00 89.00,156.00              89.00,156.00 185.00,156.00 185.00,156.00              185.00,156.00 182.17,181.00 182.17,181.00              181.80,184.66 182.25,188.66 179.49,191.57              177.16,194.04 171.34,195.04 168.00,196.00              164.61,196.97 153.20,200.12 150.29,200.18              146.57,200.26 136.94,197.37 133.00,196.37              129.43,195.47 122.02,194.03 119.60,191.35              117.25,188.77 116.80,174.46 116.00,170.00              116.00,170.00 90.00,170.00 90.00,170.00              90.00,170.00 92.91,200.00 92.91,200.00              92.91,200.00 94.98,212.44 94.98,212.44              94.98,212.44 116.00,219.42 116.00,219.42              116.00,219.42 150.00,228.21 150.00,228.21              150.00,228.21 180.00,220.37 180.00,220.37              180.00,220.37 198.00,215.42 198.00,215.42              198.00,215.42 205.01,212.30 205.01,212.30              205.01,212.30 206.42,205.00 206.42,205.00              206.42,205.00 208.03,187.00 208.03,187.00              208.03,187.00 211.17,152.00 211.17,152.00              211.17,152.00 213.00,129.00 213.00,129.00              213.00,129.00 113.00,129.00 113.00,129.00              113.00,129.00 111.00,100.00 111.00,100.00              111.00,100.00 216.00,100.00 216.00,100.00              216.00,100.00 218.00,74.00 218.00,74.00              218.00,74.00 82.00,74.00 82.00,74.00 Z"
     style="fill:#000000;stroke:none;stroke-opacity:1;opacity:0.04" />
</svg>
