<?xml version="1.0" encoding="UTF-8" standalone="no"?>
<svg
   xmlns:dc="http://purl.org/dc/elements/1.1/"
   xmlns:cc="http://creativecommons.org/ns#"
   xmlns:rdf="http://www.w3.org/1999/02/22-rdf-syntax-ns#"
   xmlns:svg="http://www.w3.org/2000/svg"
   xmlns="http://www.w3.org/2000/svg"
   xmlns:sodipodi="http://sodipodi.sourceforge.net/DTD/sodipodi-0.dtd"
   xmlns:inkscape="http://www.inkscape.org/namespaces/inkscape"
   width="120"
   height="135.341"
   viewBox="0 0 95.99993 108.27272"
   id="svg2"
   version="1.1"
   inkscape:version="0.91 r13725"
   sodipodi:docname="html5-small.svg">
  <metadata
     id="metadata9">
    <rdf:RDF>
      <cc:Work
         rdf:about="">
        <dc:format>image/svg+xml</dc:format>
        <dc:type
           rdf:resource="http://purl.org/dc/dcmitype/StillImage" />
        <dc:title></dc:title>
      </cc:Work>
    </rdf:RDF>
  </metadata>
  <defs
     id="defs7" />
  <sodipodi:namedview
     pagecolor="#ffffff"
     bordercolor="#666666"
     borderopacity="1"
     objecttolerance="10"
     gridtolerance="10"
     guidetolerance="10"
     inkscape:pageopacity="0"
     inkscape:pageshadow="2"
     inkscape:window-width="847"
     inkscape:window-height="448"
     id="namedview5"
     showgrid="false"
     inkscape:zoom="0.62933285"
     inkscape:cx="3.9724611"
     inkscape:cy="111.2289"
     inkscape:window-x="294"
     inkscape:window-y="32"
     inkscape:window-maximized="0"
     inkscape:current-layer="svg2"
     units="px" />
  <path
     id="Selection"
     d="m 95.99993,3.8153658e-6 c 0,0 -1.80325,19.8919501846342 -1.80325,19.8919501846342 0,0 -4.60972,50.59472 -4.60972,50.59472 0,0 -1.72973,19.45952 -1.72973,19.45952 0,0 -0.94703,7.1092 -0.94703,7.1092 0,0 -4.7481,1.8465 -4.7481,1.8465 0,0 -12.1081,3.403256 -12.1081,3.403256 0,0 -15.567555,4.34595 -15.567555,4.34595 0,0 -6.486482,1.62163 -6.486482,1.62163 0,0 -7.900534,-2.02812 -7.900534,-2.02812 0,0 -16.497285,-4.64865 -16.497285,-4.64865 0,0 -10.196749,-2.819476 -10.196749,-2.819476 0,0 -4.315672,-1.72109 -4.315672,-1.72109 0,0 -0.947027,-7.1092 -0.947027,-7.1092 0,0 -1.729728,-19.45952 -1.729728,-19.45952 0,0 -4.609726,-50.59472 -4.609726,-50.59472 C 1.803242,19.891954 0,3.8153658e-6 0,3.8153658e-6 c 0,0 95.99993,0 95.99993,0 z M 18.59458,20.324384 c 0,0 0.791351,9.51354 0.791351,9.51354 0,0 1.011891,12.54058 1.011891,12.54058 0,0 1.223783,13.40543 1.223783,13.40543 0,0 41.513485,0 41.513485,0 0,0 -1.22379,10.81084 -1.22379,10.81084 -0.16,1.58271 0.0346,3.31244 -1.158914,4.57082 -1.007567,1.06812 -3.524322,1.50055 -4.968645,1.91569 -1.465945,0.41945 -6.399995,1.78163 -7.658372,1.80757 -1.608648,0.0346 -5.772969,-1.21514 -7.476751,-1.64757 -1.543783,-0.38919 -4.748105,-1.0119 -5.794591,-2.17082 -1.016215,-1.11568 -1.210809,-7.3038 -1.556755,-9.23246 0,0 -11.243235,0 -11.243235,0 0,0 1.258378,12.97301 1.258378,12.97301 0,0 0.895134,5.37947 0.895134,5.37947 0,0 9.089723,3.01839 9.089723,3.01839 0,0 14.702691,3.80109 14.702691,3.80109 0,0 12.972963,-3.39027 12.972963,-3.39027 0,0 7.783774,-2.14055 7.783774,-2.14055 0,0 3.03135,-1.3492 3.03135,-1.3492 0,0 0.60973,-3.15677 0.60973,-3.15677 0,0 0.69622,-7.78379 0.69622,-7.78379 0,0 1.35784,-15.13518 1.35784,-15.13518 0,0 0.79135,-9.94598 0.79135,-9.94598 0,0 -43.243214,0 -43.243214,0 0,0 -0.864865,-12.54057 -0.864865,-12.54057 0,0 45.405369,0 45.405369,0 0,0 0.86487,-11.24327 0.86487,-11.24327 0,0 -58.81077,0 -58.81077,0 z"
     style="opacity:1;fill:#000000;stroke:none;stroke-opacity:1"
     inkscape:connector-curvature="0" />
</svg>
