<?xml version="1.0" encoding="UTF-8" standalone="no"?>
<svg
   xmlns:dc="http://purl.org/dc/elements/1.1/"
   xmlns:cc="http://creativecommons.org/ns#"
   xmlns:rdf="http://www.w3.org/1999/02/22-rdf-syntax-ns#"
   xmlns:svg="http://www.w3.org/2000/svg"
   xmlns="http://www.w3.org/2000/svg"
   xmlns:sodipodi="http://sodipodi.sourceforge.net/DTD/sodipodi-0.dtd"
   xmlns:inkscape="http://www.inkscape.org/namespaces/inkscape"
   viewBox="0 0 375.00029 375.00028"
   height="4.1666698in"
   width="4.1666698in"
   version="1.1"
   id="svg4196"
   inkscape:version="0.91 r13725"
   sodipodi:docname="jade.svg">
  <sodipodi:namedview
     pagecolor="#ffffff"
     bordercolor="#666666"
     borderopacity="1"
     objecttolerance="10"
     gridtolerance="10"
     guidetolerance="10"
     inkscape:pageopacity="0"
     inkscape:pageshadow="2"
     inkscape:window-width="691"
     inkscape:window-height="480"
     id="namedview6"
     showgrid="false"
     units="in"
     inkscape:zoom="0.88571429"
     inkscape:cx="156.61926"
     inkscape:cy="82.053311"
     inkscape:window-x="0"
     inkscape:window-y="0"
     inkscape:window-maximized="0"
     inkscape:current-layer="svg4196" />
  <metadata
     id="metadata4202">
    <rdf:RDF>
      <cc:Work
         rdf:about="">
        <dc:format>image/svg+xml</dc:format>
        <dc:type
           rdf:resource="http://purl.org/dc/dcmitype/StillImage" />
        <dc:title></dc:title>
      </cc:Work>
    </rdf:RDF>
  </metadata>
  <defs
     id="defs4200" />
  <path
     id="path4746"
     d="m 13.784583,211.18648 0,-59.21584 13.159078,0 13.159078,0 0,59.21584 0,59.21585 -13.159078,0 -13.159078,0 0,-59.21585 z m 71.060369,19.4137 c -22.873255,-9.12079 -33.201551,-38.14423 -21.439853,-60.2479 5.693086,-10.69897 21.945584,-20.90824 33.383149,-20.97017 4.398312,-0.0237 12.392452,2.19768 17.764752,4.93663 7.71623,3.93397 9.76782,4.21035 9.76782,1.31591 0,-2.64227 3.66953,-3.66401 13.15908,-3.66401 l 13.15907,0 0,39.47722 0,39.47724 -13.15907,0 c -9.94241,0 -13.15908,-0.965 -13.15908,-3.94773 0,-2.17124 -1.18431,-3.94772 -2.63181,-3.94772 -1.44751,0 -2.63181,1.06846 -2.63181,2.37436 0,2.93471 -14.60815,8.2123 -22.105202,7.98609 -3.040871,-0.0918 -8.489041,-1.34722 -12.107046,-2.78992 z M 119.0572,201.97513 c 8.60816,-8.60816 6.36681,-18.98792 -5.41585,-25.08096 -17.147909,-8.86753 -34.528343,11.47841 -21.810309,25.53168 5.89298,6.51167 20.505689,6.26975 27.226159,-0.45072 z m 72.37493,27.86661 c -31.41423,-13.96216 -33.24491,-60.41975 -2.95861,-75.0811 14.05207,-6.80248 24.25928,-6.85672 35.19835,-0.18703 l 8.5534,5.2151 0,-27.59537 0,-27.59538 13.15907,0 13.15908,0 0,63.16357 0,63.16357 -13.15908,0 c -9.88453,0 -13.15907,-0.97274 -13.15907,-3.90905 0,-3.18959 -1.57423,-2.94921 -8.5534,1.30608 -9.85759,6.01028 -20.95865,6.53351 -32.23974,1.51959 z m 35.52951,-25.2348 c 11.06397,-11.06398 3.05255,-31.58178 -12.33151,-31.58178 -9.0701,0 -19.25028,9.54748 -19.25028,18.05389 0,15.64081 20.63146,24.4782 31.58179,13.52789 z m 78.47753,26.36795 c -18.68345,-5.63848 -28.43533,-19.18922 -28.44586,-39.52703 -0.0105,-19.13647 6.76699,-30.22643 22.80659,-37.32151 29.63684,-13.10978 60.25002,3.4997 62.08049,33.68239 l 0.61975,10.21866 -28.47787,0.40519 c -15.66286,0.22287 -29.14686,1.07413 -29.96445,1.89173 -0.81758,0.81759 0.47764,4.48429 2.87835,8.14821 5.0569,7.71777 19.82999,9.30261 25.29809,2.71395 3.61525,-4.3561 28.94996,-5.68439 28.94996,-1.51784 0,1.33646 -3.0369,6.03907 -6.7487,10.45026 -9.87066,11.73062 -30.76109,16.35924 -48.99635,10.85599 z m 32.05872,-49.46869 c 0,-1.12542 -1.84365,-4.67837 -4.09696,-7.89545 -4.8973,-6.99185 -15.80259,-7.71028 -22.67193,-1.4936 -9.09676,8.23246 -6.02205,11.43527 10.97798,11.43527 8.685,0 15.79091,-0.9208 15.79091,-2.04622 z M 19.53609,134.38005 c -1.902917,-0.76128 -4.599096,-4.38059 -5.991507,-8.04292 -3.7743804,-9.92736 3.07159,-19.10736 14.249293,-19.10736 10.439423,0 14.940678,4.0002 14.940678,13.27754 0,11.60366 -11.572266,18.5239 -23.198464,13.87274 z"
     style="opacity:0.03999999;fill:#000000"
     inkscape:connector-curvature="0" />
</svg>
