<?xml version="1.0" encoding="UTF-8" standalone="no"?>
<svg
   xmlns:dc="http://purl.org/dc/elements/1.1/"
   xmlns:cc="http://creativecommons.org/ns#"
   xmlns:rdf="http://www.w3.org/1999/02/22-rdf-syntax-ns#"
   xmlns:svg="http://www.w3.org/2000/svg"
   xmlns="http://www.w3.org/2000/svg"
   xmlns:sodipodi="http://sodipodi.sourceforge.net/DTD/sodipodi-0.dtd"
   xmlns:inkscape="http://www.inkscape.org/namespaces/inkscape"
   width="1.33333in"
   height="0.822222in"
   viewBox="0 0 120 74"
   id="svg2"
   version="1.1"
   inkscape:version="0.91 r13725"
   sodipodi:docname="md-small.svg">
  <metadata
     id="metadata9">
    <rdf:RDF>
      <cc:Work
         rdf:about="">
        <dc:format>image/svg+xml</dc:format>
        <dc:type
           rdf:resource="http://purl.org/dc/dcmitype/StillImage" />
      </cc:Work>
    </rdf:RDF>
  </metadata>
  <defs
     id="defs7" />
  <sodipodi:namedview
     pagecolor="#ffffff"
     bordercolor="#666666"
     borderopacity="1"
     objecttolerance="10"
     gridtolerance="10"
     guidetolerance="10"
     inkscape:pageopacity="0"
     inkscape:pageshadow="2"
     inkscape:window-width="885"
     inkscape:window-height="480"
     id="namedview5"
     showgrid="false"
     inkscape:zoom="1.2916699"
     inkscape:cx="68.886825"
     inkscape:cy="12.489447"
     inkscape:window-x="328"
     inkscape:window-y="81"
     inkscape:window-maximized="0"
     inkscape:current-layer="svg2"
     units="px" />
  <path
     id="Selection"
     d="m 34,0 61,0 c 6.22,0 20.61,-2.1 23.98,4.06 1.21,2.21 1.02,5.46 1.02,7.94 l 0,51 c -0.07,10.23 -3.77,10.99 -13,11 L 26,74 C 19.72,74 4.41,75.92 1.02,69.89 -0.19,67.73 0,64.44 0,62 L 0,18 C 0,11.42 -1.59,5.43 4.06,1.02 9.73,-0.93 27.03,0 34,0 Z M 27.91,18.6 C 25.82,17.77 20.46,18 18,18 l 0,38 10,0 0,-22 13,13 12,-13 0,22 10,0 0,-37.84 C 61.07,18 56.68,17.89 55,18.16 49.85,19.6 40.705,30.851774 40.705,30.851774 40.705,30.851774 31.89,20.17 27.91,18.6 Z M 85,18 85.012581,37.947742 74,38 89.83871,55 105,38 95,38 95,18 Z"
     inkscape:connector-curvature="0"
     style="fill:#000000;fill-opacity:1;stroke:none;stroke-width:1"
     sodipodi:nodetypes="sscsccscsscsccccccccccccccccccccc" />
</svg>
